<?xml version="1.0" encoding="UTF-8" standalone="no"?>
<!-- Created with Inkscape (http://www.inkscape.org/) -->

<svg
   version="1.1"
   id="svg1"
   width="699.15186"
   height="159.99414"
   viewBox="0 0 1398.3037 319.98828"
   sodipodi:docname="logo.svg"
   inkscape:version="1.4.1-rc (06eac75fbf, 2025-03-29)"
   xmlns:inkscape="http://www.inkscape.org/namespaces/inkscape"
   xmlns:sodipodi="http://sodipodi.sourceforge.net/DTD/sodipodi-0.dtd"
   xmlns="http://www.w3.org/2000/svg"
   xmlns:svg="http://www.w3.org/2000/svg">
  <defs
     id="defs1" />
  <sodipodi:namedview
     id="namedview1"
     pagecolor="#ffffff"
     bordercolor="#000000"
     borderopacity="0.25"
     inkscape:showpageshadow="2"
     inkscape:pageopacity="0.0"
     inkscape:pagecheckerboard="0"
     inkscape:deskcolor="#d1d1d1"
     showgrid="false"
     inkscape:zoom="1.1959459"
     inkscape:cx="397.59324"
     inkscape:cy="70.237291"
     inkscape:window-width="1920"
     inkscape:window-height="1011"
     inkscape:window-x="0"
     inkscape:window-y="32"
     inkscape:window-maximized="1"
     inkscape:current-layer="g1" />
  <g
     inkscape:groupmode="layer"
     inkscape:label="Image"
     id="g1"
     transform="translate(-3.1127974,-4.011718)">
    <g
       id="g2">
      <path
         style="fill:#f83f84"
         d="m 1225.5662,180.47527 c -11.2001,-2.24088 -21.8747,-11.54557 -25.9413,-22.61209 -1.5339,-4.17435 -1.7017,-10.47443 -1.6823,-63.164485 0.021,-57.46148 0.061,-58.632614 2.1772,-64.289314 3.0327,-8.105645 12.2764,-17.406605 20.1677,-20.29271 C 1225.9321,8.0522558 1227.5023,8 1283.8883,8 c 58.8023,0 62.196,0.1941559 66.3617,3.796592 2.6449,2.287317 1.9916,4.325297 -2.7127,8.461892 l -4.2742,3.758485 -58.9597,0.241515 -58.9596,0.241516 -3.7907,2.891533 c -2.0849,1.590343 -4.7498,4.965343 -5.9219,7.5 C 1213.5372,39.419481 1213.5,40.469693 1213.5,95 v 55.5 l 2.2967,4.30161 c 1.4249,2.66899 4.0751,5.42948 6.9825,7.27331 l 4.6859,2.97169 57.6752,-0.27331 57.6753,-0.2733 3.7718,-3.05329 c 7.123,-5.76609 7.8703,-8.48226 8.2388,-29.94671 l 0.3262,-19 4.6738,-4.79093 c 3.5044,-3.59226 5.2993,-4.71813 7.1738,-4.5 l 2.5,0.29093 0.2669,25.74509 0.2668,25.74509 -2.945,5.75491 c -3.9213,7.66272 -9.985,13.62599 -17.5044,17.21469 l -6.1717,2.94547 -56.3624,0.29737 c -35.7165,0.18845 -58.2384,-0.078 -61.484,-0.72735 z"
         id="path4" />
      <path
         style="fill:#554de1"
         d="M 46.5,290.57897 C 32.560553,287.0915 20.753793,278.90095 13.039149,267.3666 5.3723567,255.90379 3.5923279,248.90055 3.5416006,230 L 3.5,214.5 h 26 26 l 0.262744,10.5 c 0.231673,9.25835 0.510841,10.70694 2.360784,12.25 1.962646,1.63707 7.690946,1.75 88.764752,1.75 76.82167,0 86.91918,-0.17684 88.88921,-1.5567 2.21052,-1.54831 2.22251,-1.71443 2.22251,-30.8 0,-21.41146 -0.32138,-29.56468 -1.2,-30.4433 -0.91533,-0.91533 -22.27965,-1.2 -90.05845,-1.2 -60.129216,0 -91.183578,-0.35891 -96.049997,-1.11011 C 27.136987,170.25394 7.787649,150.81764 4.0114707,127 3.1957407,121.85491 2.9466708,108.5104 3.2182257,84.5 3.5878083,51.822177 3.7585912,49.063953 5.7922776,42.92787 11.819773,24.74158 29.257183,9.0480864 47.799221,5.1220433 51.505188,4.3373515 81.571005,4.0035685 147.79922,4.0118689 227.67363,4.0218796 243.36108,4.2525879 248,5.485477 c 18.38182,4.885352 33.30105,18.093216 39.79311,35.228508 2.31286,6.104627 2.61291,8.519786 2.98822,24.052812 l 0.4172,17.266798 L 264.84926,81.766797 238.5,81.5 238.21267,71.037492 c -0.21789,-7.933916 -0.67829,-10.894511 -1.90499,-12.25 C 234.77753,57.096695 229.9411,57 146.90172,57 H 59.113408 l -1.556704,2.222506 C 56.235928,61.108178 56,65.77611 56,90.022506 56,110.91611 56.322655,118.92265 57.2,119.8 c 0.915251,0.91525 22.33073,1.20179 90.25,1.20755 54.66377,0.005 91.55994,0.39576 95.55,1.01288 7.45328,1.15276 17.6431,5.07916 23.5758,9.08436 10.42936,7.0409 19.59096,20.38386 22.90258,33.35531 2.30072,9.01178 2.21694,76.10927 -0.10672,85.47601 -4.9247,19.85156 -20.43602,35.00286 -41.60332,40.6377 -7.30775,1.94535 -193.494275,1.95013 -201.26834,0.005 z m 1242,-141.55429 c -3.0894,-1.31073 -58.1906,-57.220479 -58.9814,-59.846852 -0.3845,-1.277194 -0.4045,-3.496203 -0.044,-4.93113 0.7665,-3.053894 14.7063,-17.748203 18.9143,-19.938102 5.645,-2.937703 7.8722,-1.50567 26.3587,16.947934 l 17.2473,17.21652 41.2808,-41.236525 c 49.5022,-49.4491094 43.8174,-46.367914 58.6244,-31.77487 9.4812,9.344246 9.5991,9.519291 9.5019,14.106372 l -0.098,4.644717 -52.9212,52.893628 c -55.0861,55.057368 -54.2309,54.315908 -59.882,51.918308 z"
         id="path3" />
      <path
         style="fill:#605972"
         d="m 874,259 v -65 h 38.32069 38.32068 l 5.42313,2.75 c 3.5521,1.80123 6.46028,4.246 8.42931,7.08614 L 967.5,208.17228 V 240.5 272.82772 l -3.00619,4.33614 c -1.96903,2.84014 -4.87721,5.28491 -8.42931,7.08614 L 950.64137,287 H 922.82069 895 V 305.5 324 H 884.5 874 Z m 73,-18.51688 v -25.51688 l -25.75,0.26688 -25.75,0.26688 -0.26864,23.98023 c -0.14776,13.18912 -0.0494,24.55162 0.21861,25.25 0.37625,0.98048 6.30399,1.26977 26.01865,1.26977 H 947 Z m -611.37523,45.06912 c -4.92481,-1.78257 -10.33948,-6.91101 -12.72492,-12.05224 -1.70313,-3.67069 -1.85773,-7.1079 -1.87789,-41.75 L 321,194 h 10.48737 10.48737 l 0.26263,35.75 0.26263,35.75 25.75,0.26688 25.75,0.26688 V 230.01688 194 h 10.5 10.5 v 37.88581 37.88581 l -2.79422,5.34875 c -2.03332,3.89221 -4.12172,6.1699 -7.66909,8.36419 l -4.87486,3.01544 -30.08092,0.22745 c -23.75217,0.1796 -30.89622,-0.0676 -33.95614,-1.17521 z M 429,225.5 V 164 h 10.5 10.5 v 15 15 l 26.75,0.006 c 15.91933,0.003 28.31071,0.43894 30.6047,1.07591 2.12008,0.58868 5.79938,2.86288 8.17622,5.05378 7.0127,6.46408 7.46908,8.93046 7.46908,40.36473 0,31.43427 -0.45638,33.90065 -7.46908,40.36473 -2.37684,2.1909 -6.05614,4.4651 -8.17622,5.05378 -2.4194,0.6718 -17.72472,1.07241 -41.1047,1.07591 L 429,287 Z m 72.5,15 v -25 L 475.75,215.23312 450,214.96624 V 240.5 266.03376 L 475.75,265.76688 501.5,265.5 Z m 45.42931,43.75 c -6.60038,-3.34316 -11.31875,-9.77881 -12.27284,-16.73964 -0.35562,-2.59454 -0.39725,-5.12077 -0.0925,-5.61385 0.30473,-0.49308 4.99621,-0.89651 10.4255,-0.89651 9.47569,0 9.88424,0.0902 10.19098,2.25 L 555.5,265.5 h 26 26 v -7 -7 L 578.45306,251 c -26.21417,-0.45124 -29.33494,-0.68357 -32,-2.38235 -7.91858,-5.04748 -11.04935,-10.22089 -12.04064,-19.89642 -1.70481,-16.6399 2.26441,-26.77825 12.51689,-31.97123 l 5.42932,-2.75 28.57068,0.006 c 17.33169,0.003 30.09727,0.42944 32.45141,1.08309 5.6454,1.56751 12.95798,9.22801 14.44459,15.13184 0.64608,2.56582 1.17469,5.81586 1.17469,7.22231 V 220 h -10.43045 c -10.05541,0 -10.44194,-0.0809 -10.75,-2.25 L 607.5,215.5 h -26 -26 v 7 7 l 29.07593,0.5 29.07593,0.5 4.09316,2.71065 c 4.74215,3.14042 8.49662,7.84928 10.11688,12.68857 1.50697,4.50095 1.45475,20.30245 -0.0842,25.48476 -1.60067,5.39004 -9.23577,13.09429 -14.39696,14.52735 -2.35414,0.65365 -15.11972,1.07971 -32.45141,1.08309 L 552.35863,287 Z M 656.5,285.79345 c -4.82532,-1.6867 -9.25287,-5.51667 -12.2277,-10.57734 L 641.5,270.5 641.15656,246.03468 c -0.18889,-13.45592 -0.0402,-27.29672 0.33038,-30.75732 0.92221,-8.61147 5.07553,-14.79598 12.44237,-18.52736 L 659.35863,194 H 697.17931 735 v 10.48753 10.48752 L 698.75,215.23753 662.5,215.5 v 25 25 l 36.75,0.26232 36.75,0.26232 V 276.51232 287 l -38.25,-0.079 c -23.8991,-0.0493 -39.37556,-0.47239 -41.25,-1.1276 z m 95.71675,-38.20873 0.28325,-39.41527 3.01708,-4.29136 c 1.88249,-2.67758 5.02787,-5.34181 8.36419,-7.08472 L 769.22838,194 H 797.11419 825 v 10.5 10.5 h -26 -26 v 36 36 H 762.46675 751.9335 Z M 837,240.5 V 194 H 847.5 858 V 240.5 287 H 847.5 837 Z m 158.5,45.43904 c -4.3119,-1.26567 -10.20283,-6.46823 -12.77902,-11.28577 -2.20197,-4.11772 -2.22341,-4.60052 -2.50494,-56.40327 L 979.93207,166 H 990.46604 1001 v 14 14 h 18 18 v 10.5 10.5 h -18.0172 -18.0171 l 0.2671,25.25 0.2672,25.25 17.75,0.27307 17.75,0.27308 V 276.52307 287 l -19.25,-0.0902 c -10.5875,-0.0496 -20.6,-0.48645 -22.25,-0.97077 z M 1050,240.5 V 194 h 10.5 10.5 v 46.5 46.5 h -10.5 -10.5 z m 48.0019,43.75 c -3.1472,-1.65593 -6.4748,-4.47998 -8.3642,-7.09841 L 1086.5,272.80318 V 240.5 208.19682 l 3.1377,-4.34841 c 1.8894,-2.61843 5.217,-5.44248 8.3642,-7.09841 l 5.2265,-2.75 28.6358,0.006 c 17.8487,0.003 30.1426,0.42271 32.6358,1.11292 5.3074,1.46927 12.9122,9.07415 14.3815,14.3815 0.6837,2.46964 1.1073,14.32992 1.1073,31 0,16.67008 -0.4236,28.53036 -1.1073,31 -1.4693,5.30735 -9.0741,12.91223 -14.3815,14.3815 -2.4932,0.69021 -14.7871,1.10945 -32.6358,1.11292 L 1103.2284,287 Z M 1158.5,240.5 v -25 l -25.75,-0.26688 -25.75,-0.26688 V 240.5 266.03376 l 25.75,-0.26688 25.75,-0.26688 z m 34.5,0 V 194 h 38.3207 38.3207 l 5.4231,2.75 c 3.5506,1.80046 6.4611,4.24673 8.4293,7.08472 l 3.0062,4.33473 0.2832,39.41527 L 1287.0665,287 H 1276.5332 1266 v -36.01688 -36.01688 l -25.75,0.26688 -25.75,0.26688 -0.2626,35.75 -0.2627,35.75 H 1203.4874 1193 Z m 123.1471,45.35456 c -5.1509,-1.48259 -12.5636,-9.48031 -13.9724,-15.07507 -0.6461,-2.56582 -1.1747,-5.81586 -1.1747,-7.22231 V 261 h 10.4304 c 10.0555,0 10.442,0.0809 10.75,2.25 l 0.3196,2.25 25.75,0.26688 25.75,0.26688 V 258.51688 251 l -27.75,-0.022 c -24.7941,-0.0196 -28.182,-0.2182 -31.8058,-1.86417 -4.9934,-2.26808 -10.733,-8.79666 -12.2836,-13.97231 -1.4997,-5.00556 -1.4918,-18.94045 0.014,-24.92105 1.4866,-5.90383 8.7992,-13.56433 14.4446,-15.13184 2.3541,-0.65365 15.1197,-1.07971 32.4514,-1.08309 l 28.5707,-0.006 5.4293,2.75 c 6.6376,3.36204 11.318,9.7735 12.2851,16.82886 0.3623,2.64362 0.2783,5.18702 -0.1867,5.65202 -0.465,0.465 -5.3058,0.71577 -10.7573,0.55728 -9.439,-0.27441 -9.9271,-0.39629 -10.2335,-2.5549 l -0.3218,-2.26673 -25.6782,0.26673 L 1322.5,215.5 v 7 7 l 28.5,0.5 c 28.1367,0.49363 28.5574,0.53204 33,3.0131 6.5347,3.6494 10.6587,10.28604 11.5472,18.58264 0.7971,7.44349 -0.083,18.62697 -1.7155,21.79992 -2.6705,5.1904 -6.4836,8.99929 -11.2147,11.20218 -5.0353,2.34456 -5.5802,2.38134 -34.117,2.3022 -15.95,-0.0442 -30.5088,-0.51469 -32.3529,-1.04548 z M 837,174.5 V 164 H 847.5 858 V 174.5 185 H 847.5 837 Z m 213,0 V 164 h 10.5 10.5 V 174.5 185 H 1060.5 1050 Z M 321,80.5 V 34 h 59.88581 59.88581 l 5.34711,2.793367 c 3.33632,1.742913 6.4817,4.407142 8.36419,7.084722 L 457.5,48.169445 457.78325,87.584723 458.0665,127 H 447.53325 437 V 90.977441 54.954883 L 418.75,55.227441 400.5,55.5 400.23737,91.25 399.97474,127 H 389.48737 379 V 90.977441 54.954883 L 360.75,55.227441 342.5,55.5 342.23737,91.25 341.97474,127 H 331.48737 321 Z m 164.87963,43.70578 c -3.89105,-2.03271 -6.17055,-4.12237 -8.36419,-7.6676 L 474.5,111.6648 474.19387,90.8324 473.88774,70 h 36.59994 36.59994 L 546.79381,62.75 546.5,55.5 510.25,55.237526 474,54.975052 V 44.443987 33.912923 l 39.25,0.293538 c 42.92091,0.320993 41.82192,0.173802 48.16391,6.450687 6.46591,6.399537 6.5399,6.947276 6.56413,48.592852 L 568,127 H 529.61419 491.22838 Z M 547,97.5 V 89 h -26 -26 v 8.5 8.5 h 26 26 z m 35.02196,-8.25 c 0.02,-34.359775 0.18557,-38.109229 1.8437,-41.75 2.34267,-5.1438 8.93233,-11.072436 13.81356,-12.427876 2.25279,-0.625565 14.79855,-1.063259 30.57078,-1.066547 L 655,34 V 44.5 55 h -26 -26 v 36 36 H 592.5 582 Z m 95.91354,35 c -6.59761,-3.34557 -10.53208,-8.66804 -11.92842,-16.13649 C 665.41911,104.96865 665,82.600151 665,54.36351 V 6 H 675.5 686 V 20 34 H 704.5 723 V 44.5 55 H 704.5 686 v 23.918213 c 0,13.155016 0.27314,24.630017 0.60699,25.499997 0.5222,1.36084 3.1064,1.58179 18.5,1.58179 H 723 v 10.5 10.5 h -19.82069 c -19.6412,0 -19.86979,-0.0249 -25.24381,-2.75 z"
         id="path2" />
    </g>
  </g>
</svg>
