<?xml version="1.0" encoding="UTF-8" standalone="no"?>
<!-- Svg Vector Icons : http://www.onlinewebfonts.com/icon -->

<svg
   version="1.1"
   x="0px"
   y="0px"
   viewBox="0 0 236.03917 229.83054"
   enable-background="new 0 0 256 256"
   xml:space="preserve"
   id="svg10"
   sodipodi:docname="diagramm.svg"
   inkscape:version="1.4.1-rc (06eac75fbf, 2025-03-29)"
   width="236.03917"
   height="229.83054"
   xmlns:inkscape="http://www.inkscape.org/namespaces/inkscape"
   xmlns:sodipodi="http://sodipodi.sourceforge.net/DTD/sodipodi-0.dtd"
   xmlns="http://www.w3.org/2000/svg"
   xmlns:svg="http://www.w3.org/2000/svg"><defs
   id="defs10" /><sodipodi:namedview
   id="namedview10"
   pagecolor="#ffffff"
   bordercolor="#000000"
   borderopacity="0.25"
   inkscape:showpageshadow="2"
   inkscape:pageopacity="0.0"
   inkscape:pagecheckerboard="0"
   inkscape:deskcolor="#d1d1d1"
   showgrid="false"
   inkscape:zoom="3.1484375"
   inkscape:cx="117.99504"
   inkscape:cy="114.97767"
   inkscape:window-width="1920"
   inkscape:window-height="1011"
   inkscape:window-x="0"
   inkscape:window-y="32"
   inkscape:window-maximized="1"
   inkscape:current-layer="g8" />
<metadata
   id="metadata1"> Svg Vector Icons : http://www.onlinewebfonts.com/icon </metadata>
<g
   id="g10"
   transform="translate(-10,-13.069458)"><g
     id="g9"><g
       id="g8"><path
         fill="#000000"
         d="m 148.5,14.1 -1.3,1 v 27.2 27.2 l 2.6,-0.3 c 6.1,-0.9 22.1,-0.4 28,0.8 l 1.3,0.3 V 42.8 15.5 l -1.2,-1.2 -1.2,-1.2 h -13.5 c -12.7,-0.1 -13.4,0 -14.7,1 z"
         id="path1"
         style="fill:#1e1e2f;fill-opacity:1" /><path
         fill="#000000"
         d="m 56.8,43.8 -1,1.3 v 70.1 70.1 l 1.2,1.2 c 1.2,1.2 1.3,1.2 10.1,1.2 4.9,0 8.9,-0.2 8.9,-0.4 0,-0.2 -0.4,-1.7 -1,-3.3 -2.5,-7.1 -3.2,-13 -3.2,-25.3 0,-10.7 0.1,-12.1 1.4,-18 2.5,-11.6 6.2,-20.9 11.9,-30 l 2.8,-4.3 V 75.8 c 0,-30.2 0,-30.7 -1,-31.9 l -1,-1.3 h -14 -14 z"
         id="path2"
         sodipodi:nodetypes="ccccssscscccsccccc"
         style="fill:#1e1e2f;fill-opacity:1" /><path
         fill="#000000"
         d="m 102.5,56.8 c -0.9,0.9 -1,1.6 -1,17.7 v 16.7 l 4.7,-3.7 c 7.2,-5.7 16.8,-11 24.7,-13.8 l 2.6,-0.9 v -7.1 c 0,-6.8 -0.3,-8.7 -1.7,-9.5 -0.3,-0.2 -6.8,-0.4 -14.4,-0.4 -13.3,0 -14,0.1 -14.9,1 z"
         id="path3"
         sodipodi:nodetypes="ssccccscss"
         style="fill:#4f46e5;fill-opacity:1" /><path
         fill="#000000"
         d="m 152.9,74.6 c -13.6,1.4 -26.8,6.2 -38.6,14.1 -7.9,5.2 -17.6,14.9 -22.8,22.8 -14.9,22.4 -18.4,49.2 -10,74.1 3.1,9.1 4.5,11.4 6.5,11.4 1.4,0 71.6,-40.4 72.3,-41.7 0.3,-0.5 9.4,-16.3 20.4,-35.2 22.8,-39.5 21.4,-35.9 15.1,-38.7 -13.2,-5.9 -28.5,-8.3 -42.9,-6.8 z"
         id="path4"
         style="fill:#1e1e2f;fill-opacity:1" /><path
         fill="#000000"
         d="m 11,83.7 c -1,1.3 -1,1.5 -1,51.5 v 50.1 l 1.2,1.2 1.2,1.2 13.8,-0.1 13.8,-0.1 0.9,-1.2 c 0.9,-1.1 0.9,-2.7 0.9,-51.2 0,-49.9 0,-50 -1,-51.4 l -1,-1.3 H 26 12 Z"
         id="path5"
         style="fill:#b91c1c;fill-opacity:1" /><path
         fill="#000000"
         d="m 205,88.9 c -0.3,0.3 -9,15.3 -19.3,33.2 -11,19 -18.7,33 -18.7,33.8 0,0.7 0.4,1.6 0.9,2 0.8,0.8 71,26.5 72.2,26.5 1.7,0 2.8,-1.8 3.9,-7.1 6.3,-28.1 -2.2,-57.6 -22.7,-78.1 C 215.4,93.3 209,88.5 207,88.5 c -0.8,-0.2 -1.8,0.1 -2,0.4 z"
         id="path6"
         style="fill:#1e1e2f;fill-opacity:1"
         sodipodi:nodetypes="ccscscscc" /><path
         fill="#000000"
         d="m 124.5,182.7 c -17.3,10 -31.9,18.5 -32.4,18.8 -2.7,1.8 0,6.5 8.2,15.1 7.8,8.1 15,13.4 24.6,18 11.8,5.7 22.9,8.2 36.7,8.3 9.2,0 10.6,-0.2 11.1,-2.3 0.4,-1.8 -12.5,-74.1 -13.4,-75.2 -0.4,-0.5 -1.4,-0.9 -2.1,-0.9 -0.8,0.1 -13.9,7.4 -32.7,18.2 z"
         id="path7"
         sodipodi:nodetypes="ccccccccc"
         style="fill:#4f46e5;fill-opacity:1" /><path
         fill="#000000"
         d="m 167.1,165 c -1.7,1.1 -1.7,1.8 4.8,38.2 5.6,31.9 6.4,36 7.4,36.8 0.6,0.5 1.4,0.9 1.9,0.9 1.7,0 12.8,-4.1 17.6,-6.4 15.8,-7.7 30.3,-21.9 38.1,-37.4 2,-4.1 2.3,-5.7 1.3,-7 -0.7,-0.9 -67.8,-25.4 -69.4,-25.4 -0.6,-0.1 -1.4,0.1 -1.7,0.3 z"
         id="path8"
         style="fill:#b91c1c;fill-opacity:1"
         sodipodi:nodetypes="cccsccccc" /></g></g></g>
</svg>
