<?xml version="1.0" encoding="UTF-8" standalone="no"?>
<!-- Created with Inkscape (http://www.inkscape.org/) -->

<svg
   version="1.1"
   id="svg1"
   width="100"
   height="100"
   viewBox="0 0 600.6006 600.6006"
   sodipodi:docname="empty-star.svg"
   inkscape:version="1.4.1-rc (06eac75fbf, 2025-03-29)"
   xmlns:inkscape="http://www.inkscape.org/namespaces/inkscape"
   xmlns:sodipodi="http://sodipodi.sourceforge.net/DTD/sodipodi-0.dtd"
   xmlns="http://www.w3.org/2000/svg"
   xmlns:svg="http://www.w3.org/2000/svg">
  <defs
     id="defs1" />
  <sodipodi:namedview
     id="namedview1"
     pagecolor="#ffffff"
     bordercolor="#000000"
     borderopacity="0.25"
     inkscape:showpageshadow="2"
     inkscape:pageopacity="0.0"
     inkscape:pagecheckerboard="0"
     inkscape:deskcolor="#d1d1d1"
     showgrid="false"
     inkscape:zoom="5.5111111"
     inkscape:cx="104.4254"
     inkscape:cy="50.262097"
     inkscape:window-width="1920"
     inkscape:window-height="1011"
     inkscape:window-x="0"
     inkscape:window-y="0"
     inkscape:window-maximized="1"
     inkscape:current-layer="g1" />
  <g
     inkscape:groupmode="layer"
     inkscape:label="Image"
     id="g1">
    <path
       style="fill:#3c3cf0;fill-opacity:1"
       d="m 458.5,591.26848 c -8.59541,-2.30417 -0.24164,2.08949 -93,-48.91324 -43.75115,-24.05635 -61.62864,-33.80392 -63.87557,-34.82769 -2.06373,-0.9403 -4.54781,0.14706 -20.23845,8.85898 -9.83729,5.46196 -21.03598,11.64768 -24.88598,13.74606 -3.85,2.09837 -10.825,5.93247 -15.5,8.52022 -4.675,2.58775 -11.65,6.40506 -15.5,8.48292 -3.85,2.07785 -10.825,5.89979 -15.5,8.49319 -4.675,2.5934 -14.35,7.88447 -21.5,11.75793 -46.81414,25.3612 -45.34736,24.76526 -59.26203,24.07765 -9.42276,-0.46564 -13.65208,-2.30445 -19.43143,-8.44834 -3.65358,-3.88402 -7.76271,-13.15937 -8.43334,-19.03617 -0.58044,-5.08642 2.95929,-25.98249 14.70825,-86.82718 3.29231,-17.05 8.01554,-41.575 10.49605,-54.5 2.48052,-12.925 5.09,-26.45639 5.79884,-30.06976 l 1.28881,-6.56975 -27.08258,-32.53614 C 24.37268,254.71281 6.960131,233.21761 2.662403,225.19127 c -3.151163,-5.88505 -3.149496,-22.21496 0.0029,-28.03846 3.012129,-5.56445 8.924064,-10.99566 14.834734,-13.62845 4.8886,-2.17753 6.18083,-2.24378 58,-2.97357 29.150003,-0.41053 68.750003,-0.79114 88.000003,-0.8458 l 35,-0.0994 8.95348,-19.2264 c 4.92441,-10.57452 12.46191,-26.59535 16.75,-35.60184 4.28804,-9.00647 7.79648,-16.49502 7.79648,-16.6412 0,-0.26907 7.02562,-15.052356 19.71456,-41.483336 19.22831,-40.052414 22.45067,-45.984585 27.20057,-50.074571 7.19823,-6.198174 12.45834,-8.3411869 20.58487,-8.3864449 5.68961,-0.03169 8.06518,0.484093 12.69009,2.7552519 9.17507,4.505612 14.58836,11.376546 23.7515,30.147081 8.03777,16.465239 40.74911,85.903419 56.08685,119.058679 4.57978,9.9 8.58442,18.29631 8.89921,18.65846 0.31479,0.36215 39.94735,0.9805 88.07235,1.37412 l 87.5,0.71566 4.84021,2.43844 c 6.22217,3.13465 13.24118,9.62063 15.98208,14.76837 3.08205,5.78848 3.06721,19.06776 -0.0288,25.80173 -2.97061,6.46116 -12.89125,19.23131 -46.80061,60.24322 -15.3426,18.55621 -37.8638,45.75153 -60.45332,73 -11.85498,14.3 -22.12266,26.73198 -22.81708,27.62663 -1.03739,1.33653 -0.53738,5.34926 2.80368,22.5 24.82275,127.42326 29.17363,152.09986 27.95218,158.53482 -1.96528,10.35363 -8.2104,19.40225 -16.17724,23.43935 -6.10917,3.09575 -16.05933,3.95615 -23.30107,2.01487 z M 150.03056,547.74837 c 8.84284,-4.59863 70.70461,-38.32664 120.44447,-65.66823 15.93627,-8.76003 29.43627,-15.77756 30,-15.5945 0.56373,0.18306 26.22497,14.17894 57.02497,31.10197 54.12732,29.7402 90.27062,49.38386 99.39107,54.01845 l 4.39108,2.23134 -0.67768,-5.3423 c -0.72635,-5.72606 -6.27262,-35.85498 -12.58075,-68.34229 -2.13589,-11 -5.7359,-29.675 -8.00001,-41.5 -2.26412,-11.825 -5.9101,-30.63317 -8.10219,-41.79594 l -3.98562,-20.29593 11.75982,-14.20407 c 6.4679,-7.81223 25.01696,-30.17906 41.22012,-49.70406 49.79018,-59.99772 52.29339,-63.02334 65.63373,-79.33133 7.12274,-8.70724 13.08195,-16.18929 13.24269,-16.6268 0.16075,-0.4375 -0.41816,-1.06807 -1.28647,-1.40127 -0.8683,-0.3332 -36.77482,-0.70198 -79.79226,-0.81952 -43.01744,-0.11753 -83.23081,-0.3776 -89.36304,-0.57794 l -11.14952,-0.36424 -21.24938,-45.18945 c -11.68716,-24.8542 -25.59261,-54.41445 -30.901,-65.68945 C 320.7422,91.377814 312.82171,74.401036 308.44949,64.926641 304.07727,55.452246 300.275,47.697986 300,47.694952 c -0.275,-0.003 -11.73173,23.948744 -25.4594,53.226168 -13.72767,29.27743 -28.29136,60.20669 -32.36375,68.73169 -4.0724,8.525 -10.45689,21.88358 -14.18777,29.68574 l -6.78341,14.18574 -11.35283,0.37387 c -6.24406,0.20562 -46.88562,0.46482 -90.31458,0.576 -43.42896,0.11118 -79.30942,0.54981 -79.73435,0.97474 -0.70864,0.70864 11.48367,16.07219 40.63474,51.20391 6.161,7.425 29.12551,35.06588 51.03223,61.42419 l 39.83041,47.92418 -1.06834,6.57582 c -0.58759,3.61669 -2.47883,13.77581 -4.20277,22.57581 -7.43599,37.95782 -24.51366,127.59348 -26.0064,136.5 -0.59918,3.575 -1.33509,7.73611 -1.63537,9.24692 -0.64964,3.26851 -0.76059,3.29855 11.64215,-3.15136 z"
       id="path1" />
  </g>
</svg>
