<?xml version="1.0" encoding="UTF-8" standalone="no"?>
<!-- Created with Inkscape (http://www.inkscape.org/) -->

<svg
   version="1.1"
   id="svg1"
   width="100"
   height="100"
   viewBox="0 0 600.6006 600.6006"
   sodipodi:docname="full-star.svg"
   inkscape:version="1.4.1-rc (06eac75fbf, 2025-03-29)"
   xmlns:inkscape="http://www.inkscape.org/namespaces/inkscape"
   xmlns:sodipodi="http://sodipodi.sourceforge.net/DTD/sodipodi-0.dtd"
   xmlns="http://www.w3.org/2000/svg"
   xmlns:svg="http://www.w3.org/2000/svg">
  <defs
     id="defs1" />
  <sodipodi:namedview
     id="namedview1"
     pagecolor="#ffffff"
     bordercolor="#000000"
     borderopacity="0.25"
     inkscape:showpageshadow="2"
     inkscape:pageopacity="0.0"
     inkscape:pagecheckerboard="0"
     inkscape:deskcolor="#d1d1d1"
     inkscape:zoom="7.7938881"
     inkscape:cx="72.428548"
     inkscape:cy="49.012764"
     inkscape:window-width="1920"
     inkscape:window-height="1011"
     inkscape:window-x="0"
     inkscape:window-y="0"
     inkscape:window-maximized="1"
     inkscape:current-layer="g1" />
  <g
     inkscape:groupmode="layer"
     inkscape:label="Image"
     id="g1">
    <path
       style="fill:#ff3366;fill-opacity:1"
       d="m 459.2706,592.54526 c -8.59541,-2.30417 -0.24164,2.08949 -93,-48.91324 -43.75115,-24.05635 -61.62864,-33.80392 -63.87557,-34.82769 -2.06373,-0.9403 -4.54781,0.14706 -20.23845,8.85898 -9.83729,5.46196 -21.03598,11.65284 -24.88598,13.75753 -3.85,2.10468 -16,8.76833 -27,14.8081 -60.46148,33.19762 -81.99647,44.54506 -86.86189,45.77019 -2.63415,0.66329 -8.46314,0.98612 -13.40014,0.74215 -9.42276,-0.46564 -13.65208,-2.30445 -19.43143,-8.44834 -3.65358,-3.88402 -7.76271,-13.15937 -8.43334,-19.03617 -0.62513,-5.47806 3.08236,-26.79598 18.23093,-104.82718 5.23193,-26.95 10.51566,-54.45508 11.74162,-61.1224 l 2.22901,-12.1224 -27.03738,-32.49337 C 24.722443,255.44057 7.6858873,234.41063 3.4330074,226.46805 c -3.11972957,-5.82634 -3.10056826,-22.16854 0.032875,-28.03846 2.9577151,-5.54073 8.8735304,-10.98652 14.8047224,-13.62845 4.888601,-2.17753 6.180828,-2.24378 58,-2.97357 29.149995,-0.41053 68.778175,-0.78052 88.062605,-0.8222 l 35.06261,-0.0758 2.08542,-4.75 c 5.52613,-12.58702 52.45665,-111.508995 65.35128,-137.749996 8.10457,-16.493061 12.87126,-22.352224 21.63852,-26.597817 7.17178,-3.4729734 16.9374,-3.3166364 24.48965,0.392053 9.19427,4.515039 14.58417,11.367945 23.81767,30.282637 9.52318,19.508082 35.21456,74.065793 56.23668,119.423123 4.46098,9.625 8.36842,17.79631 8.68321,18.15846 0.31479,0.36215 39.94735,0.9805 88.07235,1.37412 l 87.5,0.71566 4.84021,2.43844 c 6.22217,3.13465 13.24118,9.62063 15.98208,14.76837 3.33095,6.25595 3.09745,19.1423 -0.481,26.54495 -3.87711,8.02049 -20.62872,28.85568 -94.84129,117.96094 -15.675,18.8206 -30.19974,36.3663 -32.27719,38.99044 l -3.77719,4.77117 9.05692,46.88873 c 4.98131,25.78879 10.83711,56.33872 13.01289,67.88872 2.17578,11.55 4.40473,23.25 4.95322,26 4.00523,20.08129 5.84403,34.2707 5.01014,38.66145 -1.96658,10.35481 -8.21118,19.40241 -16.17772,23.43935 -6.10917,3.09575 -16.05933,3.95615 -23.30107,2.01487 z"
       id="path1" />
  </g>
</svg>
