<?xml version="1.0" encoding="UTF-8" standalone="no"?>
<!-- Created with Inkscape (http://www.inkscape.org/) -->

<svg
   version="1.1"
   id="svg1"
   width="342"
   height="342"
   viewBox="0 0 985.59078 985.59078"
   sodipodi:docname="graph.svg"
   inkscape:version="1.4.1-rc (06eac75fbf, 2025-03-29)"
   xmlns:inkscape="http://www.inkscape.org/namespaces/inkscape"
   xmlns:sodipodi="http://sodipodi.sourceforge.net/DTD/sodipodi-0.dtd"
   xmlns="http://www.w3.org/2000/svg"
   xmlns:svg="http://www.w3.org/2000/svg">
  <defs
     id="defs1" />
  <sodipodi:namedview
     id="namedview1"
     pagecolor="#ffffff"
     bordercolor="#000000"
     borderopacity="0.25"
     inkscape:showpageshadow="2"
     inkscape:pageopacity="0.0"
     inkscape:pagecheckerboard="0"
     inkscape:deskcolor="#d1d1d1"
     inkscape:zoom="1.4925926"
     inkscape:cx="366.81141"
     inkscape:cy="205.01241"
     inkscape:window-width="1920"
     inkscape:window-height="1011"
     inkscape:window-x="0"
     inkscape:window-y="32"
     inkscape:window-maximized="1"
     inkscape:current-layer="g2"
     showgrid="false" />
  <g
     inkscape:groupmode="layer"
     inkscape:label="Image"
     id="g1"
     transform="translate(-47.006455,-68.518066)">
    <g
       id="g2"
       transform="translate(0,23.054756)">
      <path
         style="fill:#b91c1c;fill-opacity:1"
         d="m 208.02951,583.20197 c -6.84245,-3.35562 -10.01183,-13.44042 -6.1918,-19.70197 1.00663,-1.65 13.08831,-15.15 26.84819,-30 145.05672,-156.54884 179.85682,-193.75584 181.9751,-194.56121 3.26182,-1.24014 8.31972,-1.19008 12.07649,0.11954 2.03278,0.70864 7.7819,6.54595 17.39922,17.66616 7.89981,9.13431 19.31329,22.27201 25.36329,29.19489 21.43026,24.52219 64.05673,73.54671 68,78.20652 2.2,2.59977 4.30257,4.75998 4.67237,4.80047 0.59018,0.0646 55.62269,-56.70301 208.82172,-215.40569 C 770.36584,229.30931 801.69898,196.9 816.62329,181.5 l 27.1351,-28 -61.62919,-0.5 c -57.4637,-0.46621 -61.81038,-0.62298 -64.30972,-2.31948 -4.37154,-2.96732 -6.22433,-6.65255 -6.23676,-12.40502 -0.0122,-5.64412 1.75298,-8.94348 6.80192,-12.71371 2.72859,-2.03755 3.72005,-2.065 84.32521,-2.33468 80.11695,-0.26804 81.6383,-0.23699 85.74306,1.75009 2.67968,1.29721 4.96248,3.41715 6.363,5.90904 l 2.18409,3.88607 -0.002,81.36384 c -0.001,75.4664 -0.12829,81.61609 -1.75,84.84392 C 890.09246,311.24242 875.79548,311.81276 869.68093,302 867.515,298.52408 867.49656,298.06922 867,235.8818 l -0.5,-62.61821 -18,18.63494 c -9.9,10.24921 -41.85,43.36905 -71,73.59965 -151.15832,156.7618 -220.28751,228.26676 -227.86577,235.69688 -7.34942,7.20575 -16.34433,7.36515 -23.15379,0.41031 -2.21075,-2.25795 -27.79081,-31.46618 -56.84458,-64.90718 -29.05376,-33.44099 -53.14971,-60.66599 -53.54655,-60.5 -0.39684,0.166 -21.14193,22.35181 -46.10021,49.30181 -24.95827,26.95 -53.74162,58 -63.96301,69 -10.22138,11 -32.86302,35.36997 -50.31475,54.1555 -21.85044,23.52042 -32.70802,34.4963 -34.8701,35.25 -4.38639,1.5291 -8.74748,1.28962 -12.81173,-0.70353 z"
         id="path4" />
      <path
         style="fill:#4f46e5;fill-opacity:1"
         d="m 53.641297,1009.1021 c -1.572287,-1.0366 -3.706822,-3.1711 -4.743411,-4.7434 -1.839398,-2.79 -1.884866,-13.94876 -1.891297,-464.15836 -0.0058,-406.01371 0.171375,-461.643804 1.478322,-464.171162 5.178863,-10.014816 20.851315,-10.014816 26.030178,0 C 75.707542,78.335129 76,83.637335 76,102.95034 V 127 h 34.35212 c 34.04919,0 34.38208,0.02 37.75,2.26993 8.85453,5.91521 9.1235,17.64251 0.55454,24.17838 L 145.31122,156 H 110.65561 76 v 62.5 62.5 h 34.65561 34.65561 l 3.34544,2.55169 c 8.35894,6.37568 8.40794,17.48357 0.10505,23.81649 L 145.31122,310 H 110.65561 76 v 62.5 62.5 h 34.92327 34.92328 l 3.11264,2.61912 c 8.47879,7.13442 7.90295,18.83612 -1.20005,24.38628 -3.08427,1.8805 -5.09684,1.98732 -37.50914,1.99086 L 76,464 v 62.5 62.5 h 34.92327 34.92328 l 3.11264,2.61912 c 8.27153,6.96003 7.86909,18.28149 -0.85707,24.11095 C 144.7342,617.97998 144.40131,618 110.35212,618 H 76 v 62.5 62.5 l 34.25,0.004 c 32.4123,0.004 34.42487,0.11036 37.50914,1.99086 9.103,5.55016 9.67884,17.25186 1.20005,24.38628 L 145.84655,772 H 110.92327 76 v 62 62 h 33.18428 c 31.14095,0 33.43868,0.12316 37.3159,2.00009 10.98668,5.31856 11.0579,21.18549 0.11838,26.37662 C 143.67328,925.77434 138.5271,926 109.59887,926 H 76 v 28 28 h 474.04966 c 426.02692,0 474.35304,0.15687 477.04424,1.54855 9.2649,4.79107 9.2649,21.11185 0,25.90295 -2.6915,1.3918 -51.95643,1.5478 -486.79424,1.5419 -472.250805,-0.01 -483.867901,-0.052 -486.658363,-1.8913 z"
         id="path3" />
      <path
         style="fill:#1e1e2f;fill-opacity:1"
         d="M 271.21268,919.86132 C 264.88898,915.81204 265,916.77537 265,865.95395 c 0,-51.54289 -0.23204,-49.76916 7.04608,-53.85969 C 275.71358,810.03301 276.7216,810 336,810 c 59.2784,0 60.28642,0.033 63.95392,2.09426 2.04942,1.15184 4.58569,3.51434 5.63615,5.25 1.80568,2.9835 1.90993,5.63918 1.90993,48.65574 0,50.66535 0.13662,49.58933 -6.84379,53.90346 -3.34871,2.06961 -4.18065,2.09632 -64.77424,2.07969 -60.68024,-0.0167 -61.41955,-0.0409 -64.66929,-2.12183 z m 201.97918,0.11428 c -1.91004,-1.16452 -4.11954,-3.80435 -5.22804,-6.24626 -1.86828,-4.11563 -1.91897,-8.57135 -1.88542,-165.72934 0.0262,-122.48243 0.32284,-162.32265 1.22804,-164.90509 0.65646,-1.8728 2.92275,-4.7978 5.03621,-6.5 L 476.1853,573.5 h 61.15735 c 56.98625,0 61.38203,0.12267 64.45157,1.79855 1.81182,0.9892 4.17264,3.2392 5.24626,5 1.9152,3.14103 1.95199,6.30609 1.94919,167.70145 -0.003,159.46526 -0.0605,164.58749 -1.88756,167.3587 -1.03659,1.57229 -3.17112,3.70682 -4.74341,4.74341 -2.72229,1.79478 -5.79325,1.88485 -64.3587,1.88756 -59.91448,0.003 -61.58529,-0.0491 -64.80814,-2.01407 z m 201.73843,-0.22369 c -7.41452,-4.95364 -6.92718,3.29525 -6.92718,-117.25191 0,-120.49932 -0.48212,-112.30198 6.89477,-117.23007 L 678.29577,683 l 61.10211,0.004 c 59.20655,0.004 61.20323,0.0654 64.36126,1.99086 1.79253,1.09292 4.15334,3.45373 5.24626,5.24626 1.95062,3.19927 1.98719,5.25767 1.99086,112.0588 0.004,118.07552 0.32345,111.27552 -5.48134,116.70034 l -2.67511,2.5 -62.23961,0.27184 -62.23961,0.27184 z m 202.31057,0.25349 c -1.79253,-1.09292 -4.15334,-3.45373 -5.24626,-5.24626 -1.96934,-3.22998 -1.98716,-5.58378 -1.99086,-263.04126 -0.004,-285.24577 -0.4866,-264.09791 6.13312,-268.81922 L 879.5,380.5 l 60.5,-0.27462 60.5,-0.27462 4.426,2.27462 c 2.7581,1.41742 5.1134,3.58773 6.25,5.75902 1.7517,3.34637 1.8239,13.78407 1.8203,263.5 0,257.69046 -0.022,260.04474 -1.9909,263.27474 -1.0929,1.79253 -3.4537,4.15334 -5.2463,5.24626 -3.158,1.92549 -5.151,1.98712 -64.2591,1.98712 -59.10814,0 -61.10108,-0.0616 -64.25914,-1.98712 z"
         id="path2" />
    </g>
  </g>
</svg>
