<?xml version="1.0" encoding="UTF-8" standalone="no"?>
<!-- Created with Inkscape (http://www.inkscape.org/) -->

<svg
   version="1.1"
   id="svg1"
   width="342"
   height="342"
   viewBox="0 0 1140 1140.0001"
   sodipodi:docname="notification.svg"
   inkscape:version="1.4.1-rc (06eac75fbf, 2025-03-29)"
   xmlns:inkscape="http://www.inkscape.org/namespaces/inkscape"
   xmlns:sodipodi="http://sodipodi.sourceforge.net/DTD/sodipodi-0.dtd"
   xmlns="http://www.w3.org/2000/svg"
   xmlns:svg="http://www.w3.org/2000/svg">
  <defs
     id="defs1" />
  <sodipodi:namedview
     id="namedview1"
     pagecolor="#ffffff"
     bordercolor="#000000"
     borderopacity="0.25"
     inkscape:showpageshadow="2"
     inkscape:pageopacity="0.0"
     inkscape:pagecheckerboard="0"
     inkscape:deskcolor="#d1d1d1"
     showgrid="false"
     inkscape:zoom="1.6697112"
     inkscape:cx="346.4671"
     inkscape:cy="214.40834"
     inkscape:window-width="1920"
     inkscape:window-height="1011"
     inkscape:window-x="0"
     inkscape:window-y="32"
     inkscape:window-maximized="1"
     inkscape:current-layer="g2" />
  <g
     inkscape:groupmode="layer"
     inkscape:label="Image"
     id="g1"
     transform="translate(-113.9423,-141.37617)">
    <g
       id="g2"
       transform="translate(2.6739601,13.333334)">
      <path
         style="fill:#4f46e5;fill-opacity:1"
         d="m 114.93027,582.3333 c 9.48379,-143.98821 73.95124,-281.7551 179.7803,-384.19039 19.42457,-18.80166 51.60968,-46.1261 54.34349,-46.13642 1.81396,-0.007 82.94591,78.22544 82.94591,79.98141 0,0.56128 -5.72516,5.32381 -12.72259,10.58341 -71.97045,54.09641 -127.48543,128.08346 -159.64251,212.762 -14.9467,39.35881 -25.92057,88.78557 -28.47101,128.2345 l -0.88996,13.76549 h -58.1658 -58.1658 z m 1019.73633,8.65849 c 0,-3.48782 -0.8982,-14.13782 -1.996,-23.66666 -9.2055,-79.90296 -38.3855,-155.90244 -85.2265,-221.97254 -27.298,-38.50443 -64.32611,-76.25824 -107.4852,-109.59184 l -4.62562,-3.57256 39.99166,-40.0941 c 21.99542,-22.05176 40.59566,-40.0941 41.33376,-40.0941 3.1576,0 39.2133,31.69171 61.3412,53.91683 75.1908,75.52081 126.1675,163.4453 153.8828,265.41649 9.1114,33.52268 16.6509,78.85918 18.3486,110.33332 l 0.8451,15.66667 h -58.2049 -58.2049 z"
         id="path3" />
      <path
         style="fill:#1e1e2f;fill-opacity:1"
         d="m 656.66663,1248.4535 c -27.25763,-5.8284 -54.33747,-24.0561 -69.997,-47.1158 -10.79794,-15.9007 -16.82468,-32.9255 -18.5275,-52.3378 l -0.90642,-10.3333 h 113.71546 113.71545 v 7.9128 c 0,4.3521 -0.87476,12.0713 -1.94392,17.1539 -8.87232,42.1776 -38.54958,73.1044 -80.31804,83.6998 -15.18142,3.8511 -40.34515,4.3118 -55.73803,1.0204 z M 226.66665,1051.6608 v -28.3392 l 57.27968,-57.26802 57.27968,-57.26806 0.46094,-164.72611 c 0.4507,-161.06835 0.52488,-165.13246 3.34071,-183.02592 17.78281,-113.00265 67.54519,-196.3874 149.63898,-250.74384 25.61964,-16.96344 75.42377,-38.88905 97.66666,-42.99647 l 5,-0.9233 v -26.90482 c 0,-19.64828 0.54483,-29.04815 2.02004,-34.85161 7.48624,-29.45068 31.8094,-53.77384 61.26009,-61.26008 10.37102,-2.63627 33.73537,-2.63627 44.1064,0 29.44223,7.48409 53.44891,31.47202 61.36121,61.31328 1.43261,5.40309 2.36602,16.7361 2.87544,34.91229 l 0.75427,26.91229 6.81127,1.60239 c 23.7813,5.59471 68.63875,25.4983 92.14459,40.88525 79.25322,51.87925 133.35329,139.6808 149.96369,243.38312 5.1942,32.42908 5.4183,40.76595 5.3839,200.30463 l -0.034,155.99999 58.0097,57.99425 58.0096,57.99424 v 27.6724 27.6724 H 683.33329 226.66665 Z"
         id="path2" />
    </g>
  </g>
</svg>
