<?xml version="1.0" encoding="UTF-8" standalone="no"?>
<!-- Created with Inkscape (http://www.inkscape.org/) -->

<svg
   version="1.1"
   id="svg1"
   width="204.8"
   height="204.8"
   viewBox="0 0 2048 2048"
   sodipodi:docname="telegram.svg"
   inkscape:version="1.4.1-rc (06eac75fbf, 2025-03-29)"
   xmlns:inkscape="http://www.inkscape.org/namespaces/inkscape"
   xmlns:sodipodi="http://sodipodi.sourceforge.net/DTD/sodipodi-0.dtd"
   xmlns="http://www.w3.org/2000/svg"
   xmlns:svg="http://www.w3.org/2000/svg">
  <defs
     id="defs1" />
  <sodipodi:namedview
     id="namedview1"
     pagecolor="#ffffff"
     bordercolor="#000000"
     borderopacity="0.25"
     inkscape:showpageshadow="2"
     inkscape:pageopacity="0.0"
     inkscape:pagecheckerboard="0"
     inkscape:deskcolor="#d1d1d1"
     showgrid="false"
     inkscape:zoom="2.6431446"
     inkscape:cx="61.858137"
     inkscape:cy="127.87798"
     inkscape:window-width="1920"
     inkscape:window-height="1011"
     inkscape:window-x="0"
     inkscape:window-y="0"
     inkscape:window-maximized="1"
     inkscape:current-layer="g1" />
  <g
     inkscape:groupmode="layer"
     inkscape:label="Image"
     id="g1">
    <path
       style="fill:#3c3cf0;fill-opacity:1"
       d="m 1631.5,1884.3466 -4,-0.4096 -8.374,-1.524 -8.374,-1.524 -8.126,-2.5487 -8.126,-2.5488 -9.5,-3.9927 -9.5,-3.9927 -9.5,-5.0527 -9.5,-5.0527 -3.5,-2.2504 -3.5,-2.2504 -60.5,-45.6138 -60.5,-45.6139 -49,-36.8601 -49,-36.8601 -47,-35.4036 -47,-35.4037 -70.6582,-53.1917 -70.6581,-53.1918 -0.9749,-0.2806 -0.9749,-0.2806 -18.3669,17.4249 -18.367,17.4249 -10.0012,9.5751 -10.0011,9.5751 -49.49886,47.0774 -49.49884,47.0774 -56.49612,53.7594 -56.49611,53.7594 -6.86304,4.5626 -6.86303,4.5625 -7.16436,2.7819 -7.16436,2.782 -6.91396,1.204 -6.91397,1.204 -8.06252,-0.5851 -8.06253,-0.5852 -5.7753,-2.005 -5.7753,-2.005 -6.12496,-3.2646 -6.12496,-3.2645 -7.67797,-7.2229 -7.67796,-7.2229 -4.54417,-6.8077 -4.54417,-6.8077 -2.19113,-4.3347 -2.19113,-4.3347 2.6046,-31.6653 2.6046,-31.6653 2.42419,-29.5 2.42419,-29.5 2.55881,-31.5 2.55882,-31.5 1.95919,-24 1.9592,-24 3.05424,-37.5 3.05424,-37.5 2.46248,-29.5936 L 744,1367.3128 v -2.0476 -2.0476 l 37.25,-33.9608 37.25,-33.9608 46.5,-42.3041 46.5,-42.304 9,-8.181 9,-8.181 18,-16.4443 18,-16.4443 61.5,-55.9486 61.5,-55.9486 50,-45.4723 50,-45.47232 11.5242,-10.54774 L 1211.5483,937.5 1222,928 l 10.4517,-9.5 11.5241,-10.5464 11.5242,-10.5464 78,-70.92113 78,-70.92112 22,-20.06235 22,-20.06236 33.5,-30.4907 33.5,-30.4907 39.5,-35.9553 39.5,-35.95531 33.5,-30.50674 33.5,-30.50675 23,-20.8533 23,-20.85331 5.2182,-5.66406 5.2182,-5.66407 3.0318,-5.63998 3.0318,-5.63997 v -4.47517 -4.47516 l -1.9813,-2.51879 -1.9813,-2.51879 -4.2687,-1.7512 -4.2687,-1.75119 -9,0.0726 -9,0.0726 -8,2.07838 -8,2.07838 -6.688,2.54788 -6.688,2.54789 -8.5332,4.3542 -8.5333,4.35421 -8.3504,5.49918 -8.3505,5.49918 -70.4283,43.74113 -70.4283,43.74112 -51.5,32.00693 -51.5,32.00694 -18,11.15558 -18,11.15559 -37,23.0174 -37,23.01741 -43.5,27.02087 -43.5,27.02088 -115.5,71.75759 -115.5,71.75759 -58,36.04924 -58,36.04925 -22,13.67894 -22,13.67894 -48,29.81625 -48,29.8163 -55.5,34.4769 -55.5,34.4769 -18,11.1998 -18,11.1998 -23.71598,14.7101 -23.71598,14.71 -22.28402,-7.1193 -22.28402,-7.1193 -23.5,-7.5442 -23.5,-7.5442 -11,-3.4714 -11,-3.4713 -39,-12.4708 -39,-12.4708 -23,-7.3585 -23,-7.3586 -36,-11.499 -36,-11.499 -24,-7.664 -24,-7.6641 -34.5,-11.008 -34.5,-11.008 -19.904276,-6.4258 -19.904275,-6.4258 -8.689427,-4.5816 -8.689427,-4.5816 -6.735452,-5.0441 -6.735451,-5.04411 -4.94504,-5.94207 -4.94504,-5.9421 L 5.467474,980.93581 2.983336,976.0336 1.491668,970.3067 0,964.5798 v -4.74068 -4.74068 l 1.105349,-5.29922 1.105349,-5.29922 3.727779,-8 3.727779,-8 6.065678,-7.60751 6.065679,-7.60752 7.145586,-5.89248 7.145586,-5.89249 7.205608,-4.80337 7.205607,-4.80337 10,-4.88673 10,-4.88673 19.5,-7.47011 19.5,-7.4701 43,-16.68132 43,-16.68133 21.5,-8.32484 21.5,-8.32485 39,-15.13672 39,-15.13672 19,-7.34787 19,-7.34787 43,-16.68634 43,-16.68634 33,-12.79545 33,-12.79545 62.5,-24.23364 62.5,-24.23363 29,-11.23494 29,-11.23493 35,-13.56079 35,-13.56079 61,-23.68067 61,-23.68067 21.5,-8.29819 21.5,-8.2982 24.5,-9.51527 24.5,-9.51527 74,-28.67584 74,-28.67584 6,-2.3489 6,-2.34889 11.5,-4.45378 11.5,-4.45377 38,-14.72515 38,-14.72514 51,-19.80612 51,-19.80612 31,-11.98985 31,-11.98985 58.5,-22.68785 58.5,-22.68786 28.5,-11.06436 28.5,-11.06436 7,-2.68382 7,-2.68382 28.5,-11.06436 28.5,-11.06436 58.5,-22.68313 58.5,-22.68312 37,-14.32747 37,-14.32748 34,-13.16741 34,-13.16741 11.7986,-3.40669 11.7986,-3.40669 9.7014,-1.97096 9.7014,-1.97096 10.7593,-1.01359 10.7593,-1.01358 10.0138,0.95412 10.0138,0.95412 6.2269,1.57956 6.2269,1.57956 8.0667,3.95639 8.0667,3.95638 5.7013,5.08148 5.7013,5.08148 4.5054,6.31369 4.5053,6.3137 3.3718,7.34027 3.3717,7.34028 2.072,7.5 2.072,7.5 1.5329,11.80122 1.5329,11.80121 v 10.97723 10.97722 l -1.5295,14.72156 -1.5294,14.72156 -1.5257,9 -1.5256,9 -8.3935,40 -8.3935,40 -8.5005,40.5 -8.5006,40.5 -6.5721,31.5 -6.5722,31.5 -1.9633,9 -1.9633,9 -10.5358,50.5 -10.5358,50.5 -1.9701,9 -1.9701,9 -8.4709,40.5 -8.4708,40.5 -14.0831,67 -14.0831,67 -10.9075,52 -10.9075,52 -14.0879,67 -14.0878,67 -10.9069,52 -10.9068,52 -3.4807,16.5 -3.4807,16.5 -9.5398,45.5 -9.5398,45.5 -3.0737,14.5 -3.0736,14.5 -8.9129,42.5 -8.913,42.5 -12.5536,60 -12.5536,60 -1.9746,9 -1.9746,9 -8.5679,41 -8.5679,41 -1.4031,6.5 -1.4031,6.5 -2.5078,12 -2.5077,12 -4.0863,19.5 -4.0863,19.5 -2.5183,10.308 -2.5183,10.308 -3.4978,10.5638 -3.4978,10.5639 -4.4209,9.9709 -4.4208,9.971 -3.6967,6.1572 -3.6966,6.1572 -6.0694,7.9119 -6.0694,7.9118 -7,5.9186 -7,5.9185 -9,4.3883 -9,4.3882 -7,1.4435 -7,1.4434 -7.5,0.466 -7.5,0.4659 z"
       id="path1" />
  </g>
</svg>
