<?xml version="1.0" encoding="UTF-8" standalone="no"?>
<!-- Created with Inkscape (http://www.inkscape.org/) -->

<svg
   version="1.1"
   id="svg1"
   width="295"
   height="204.8"
   viewBox="0 0 1475 1024"
   sodipodi:docname="vk.svg"
   inkscape:version="1.4.1-rc (06eac75fbf, 2025-03-29)"
   xmlns:inkscape="http://www.inkscape.org/namespaces/inkscape"
   xmlns:sodipodi="http://sodipodi.sourceforge.net/DTD/sodipodi-0.dtd"
   xmlns="http://www.w3.org/2000/svg"
   xmlns:svg="http://www.w3.org/2000/svg">
  <defs
     id="defs1" />
  <sodipodi:namedview
     id="namedview1"
     pagecolor="#ffffff"
     bordercolor="#000000"
     borderopacity="0.25"
     inkscape:showpageshadow="2"
     inkscape:pageopacity="0.0"
     inkscape:pagecheckerboard="0"
     inkscape:deskcolor="#d1d1d1"
     inkscape:zoom="2.7515528"
     inkscape:cx="200.79571"
     inkscape:cy="115.57111"
     inkscape:window-width="1920"
     inkscape:window-height="1011"
     inkscape:window-x="0"
     inkscape:window-y="0"
     inkscape:window-maximized="1"
     inkscape:current-layer="g1" />
  <g
     inkscape:groupmode="layer"
     inkscape:label="Image"
     id="g1">
    <path
       style="fill:#3c3cf0;stroke-width:1.14656;fill-opacity:1"
       d="M 655.98105,961.2108 C 582.8486,939.53906 507.8035,894.69071 430.48969,826.45289 409.17906,807.64396 360.59578,758.42055 344.67381,739.50632 258.16849,636.74385 149.8129,446.35136 44.448154,211.97741 4.1903088,122.42762 1.7024875,115.35524 5.4945131,101.24 7.9943813,91.93462 20.510841,79.32408 29.695826,76.85677 c 4.819005,-1.2945 33.092822,-1.61598 103.955334,-1.182 86.20484,0.52794 98.6472,0.90393 108.80167,3.28788 33.89457,7.95738 59.72333,22.23137 82.39501,45.5347 17.21879,17.69854 23.65117,27.4862 39.47822,60.07091 54.50582,112.21653 112.48923,225.368 143.75318,280.52654 30.7405,54.23498 46.90747,75.78243 62.0006,82.63479 19.57799,8.88851 45.44449,-4.10328 50.02041,-25.12345 1.20674,-5.54327 1.56024,-51.09125 1.21163,-156.11604 l -0.49219,-148.28924 -3.51349,-8.69399 c -4.89584,-12.11454 -16.01149,-21.79806 -45.29797,-39.46178 -26.38002,-15.91073 -38.78421,-26.618 -45.70313,-39.45078 -11.07395,-20.53923 -4.50429,-41.91876 15.7837,-51.36467 6.82135,-3.17596 8.02764,-3.20299 142.9386,-3.20299 h 136.0592 l 8.79352,3.55073 c 17.3931,7.02315 29.42165,19.97659 36.5662,39.37782 4.06433,11.03682 4.17637,19.86658 2.21949,174.91904 -1.54657,122.54157 -0.24987,163.80535 5.52341,175.76696 4.34792,9.00843 14.23813,18.72456 24.34793,23.91944 6.50391,3.34203 10.33125,4.2141 18.86093,4.29762 21.90312,0.21445 34.72134,-10.57222 59.01094,-49.65795 76.82218,-123.61902 135.60088,-236.46497 158.05058,-303.43282 3.9363,-11.74219 9.3231,-25.47707 11.9707,-30.52197 6.1868,-11.78905 19.3831,-25.0632 30.1185,-30.29626 16.797,-8.18789 22.5285,-8.63155 111.8794,-8.66044 55.0605,-0.0178 84.7631,0.5395 90.1965,1.69235 25.2629,5.36023 40.9696,25.18216 40.9696,51.70401 0,18.17611 -4.5026,29.75817 -36.5817,94.10195 -54.8294,109.97586 -129.5752,252.48051 -161.0558,307.05691 -16.6614,28.885 -18.4578,33.79982 -18.52,50.67177 -0.092,24.77926 -7.8661,14.45473 125.693,166.91638 142.4163,162.57214 130.7544,148.84654 136.766,160.96941 8.734,17.61293 6.0875,37.31617 -6.4266,47.84611 -10.9346,9.20089 -7.0675,8.95359 -130.1043,8.31979 -121.4385,-0.6257 -117.08,-0.3446 -142.906,-9.21617 -20.2087,-6.94209 -41.2381,-19.73968 -57.4724,-34.97535 -3.863,-3.62537 -43.9458,-46.66486 -89.0729,-95.64331 -45.12709,-48.97846 -85.3066,-91.44885 -89.28793,-94.37868 -21.96519,-16.16415 -47.48634,-16.20807 -63.9929,-0.11018 -13.06656,12.74317 -12.80413,10.49897 -12.80413,109.49784 0,99.26378 0.42615,95.86403 -13.81455,110.20709 -7.10991,7.16097 -10.36595,9.19688 -18.94888,11.84786 -9.98349,3.0836 -13.34492,3.1981 -91.60894,3.1196 -80.9057,-0.081 -81.29629,-0.096 -93.47522,-3.7055 z"
       id="path1" />
  </g>
</svg>
