<?xml version="1.0" encoding="UTF-8" standalone="no"?>
<!-- Created with Inkscape (http://www.inkscape.org/) -->

<svg
   version="1.1"
   id="svg1"
   width="77.440002"
   height="77.120003"
   viewBox="0 0 77.440002 77.120003"
   sodipodi:docname="2.svg"
   inkscape:version="1.4.1-rc (06eac75fbf, 2025-03-29)"
   xmlns:inkscape="http://www.inkscape.org/namespaces/inkscape"
   xmlns:sodipodi="http://sodipodi.sourceforge.net/DTD/sodipodi-0.dtd"
   xmlns="http://www.w3.org/2000/svg"
   xmlns:svg="http://www.w3.org/2000/svg">
  <defs
     id="defs1" />
  <sodipodi:namedview
     id="namedview1"
     pagecolor="#ffffff"
     bordercolor="#000000"
     borderopacity="0.25"
     inkscape:showpageshadow="2"
     inkscape:pageopacity="0.0"
     inkscape:pagecheckerboard="0"
     inkscape:deskcolor="#d1d1d1"
     inkscape:zoom="7.3901458"
     inkscape:cx="28.754507"
     inkscape:cy="34.776039"
     inkscape:window-width="1920"
     inkscape:window-height="1011"
     inkscape:window-x="0"
     inkscape:window-y="0"
     inkscape:window-maximized="1"
     inkscape:current-layer="g1" />
  <g
     inkscape:groupmode="layer"
     inkscape:label="Image"
     id="g1">
    <path
       style="fill:#5551e7;stroke:none"
       d="M 14.035646,56.570188 H 0.15542789 c 0,4.116341 -0.365456,8.383288 1.55270701,12.181337 3.857042,7.637117 11.4830501,8.334598 19.1062201,8.334598 h 27.76044 c 9.7442,0 23.33379,2.005319 27.73827,-9.296283 1.45801,-3.741152 0.99055,-7.929621 0.99055,-11.860775 0,-4.940587 0.85502,-10.731824 -1.11833,-15.386951 -3.7034,-8.736308 -12.38812,-8.975721 -20.50898,-8.975721 h -18.72216 -17.43097 c -1.94192,0 -4.941184,0.602412 -5.413804,-1.924851 -0.638284,-3.413127 -0.07395,-7.42602 -0.07372,-10.897609 8e-5,-1.246274 -0.2794,-3.054818 0.785569,-3.973874 1.952855,-1.685291 8.633485,-0.513987 11.157875,-0.513987 h 25.50087 c 2.96943,0 7.8688,-0.939477 10.61714,0.193425 2.0288,0.836299 1.3263,4.482857 1.3263,6.217805 h 13.88022 c 0,-4.06685 0.48071,-8.420667 -1.41273,-12.1813361 -3.81603,-7.57921288 -11.36251,-8.33459848 -18.92341,-8.33459848 h -27.76044 c -9.92347,0 -23.3027451,-2.00834722 -27.9367761,9.29628298 -1.56849801,3.8263206 -1.11484101,8.1423766 -1.11484101,12.1813366 0,4.561285 -0.682452,9.733865 0.87124901,14.104705 3.449798,9.704899 12.6898921,9.937406 21.4016581,9.937406 h 18.39936 17.10818 c 1.94191,0 4.94118,-0.602413 5.4138,1.924856 0.63829,3.413127 0.0739,7.426015 0.0737,10.897603 -8e-5,1.24628 0.2794,3.054819 -0.78557,3.973875 -1.95286,1.685291 -8.63349,0.513986 -11.15787,0.513986 h -25.50087 c -2.96943,0 -7.86881,0.939473 -10.617137,-0.193425 -2.028798,-0.836298 -1.326302,-4.482861 -1.326302,-6.217805 z"
       id="path1" />
  </g>
</svg>
