<?xml version="1.0" encoding="UTF-8" standalone="no"?>
<!-- Created with Inkscape (http://www.inkscape.org/) -->

<svg
   version="1.1"
   id="svg1"
   width="69.543648"
   height="58.50185"
   viewBox="0 0 695.43648 585.0185"
   sodipodi:docname="analitics_1.svg"
   inkscape:version="1.4.1-rc (06eac75fbf, 2025-03-29)"
   xmlns:inkscape="http://www.inkscape.org/namespaces/inkscape"
   xmlns:sodipodi="http://sodipodi.sourceforge.net/DTD/sodipodi-0.dtd"
   xmlns="http://www.w3.org/2000/svg"
   xmlns:svg="http://www.w3.org/2000/svg">
  <defs
     id="defs1" />
  <sodipodi:namedview
     id="namedview1"
     pagecolor="#ffffff"
     bordercolor="#000000"
     borderopacity="0.25"
     inkscape:showpageshadow="2"
     inkscape:pageopacity="0.0"
     inkscape:pagecheckerboard="0"
     inkscape:deskcolor="#d1d1d1"
     inkscape:zoom="9.2814312"
     inkscape:cx="34.154215"
     inkscape:cy="39.21809"
     inkscape:window-width="1033"
     inkscape:window-height="1011"
     inkscape:window-x="50"
     inkscape:window-y="32"
     inkscape:window-maximized="0"
     inkscape:current-layer="g1" />
  <g
     inkscape:groupmode="layer"
     inkscape:label="Image"
     id="g1"
     transform="translate(-1.5533133,-3.1499692)">
    <path
       style="fill:#4f46e5;fill-opacity:1;stroke-width:1.30012"
       d="M 53.358702,586.55104 C 19.42348,579.89801 -4.7119355,543.30347 2.9936017,510.1866 7.8205146,489.44151 23.529689,470.83425 42.443636,463.4587 c 13.971351,-5.44816 33.850943,-5.38221 48.085948,0.15953 12.279996,4.78065 27.613036,19.12979 33.477816,31.32956 18.52479,38.53481 -4.5673,83.81604 -46.831211,91.83123 -10.035472,1.90319 -13.096554,1.87389 -23.817487,-0.22798 z m 27.771965,-34.07778 c 11.76421,-5.95869 17.8785,-15.82392 17.973883,-29.00032 0.258326,-35.68575 -48.618464,-46.46388 -63.375916,-13.97542 -9.932067,21.86537 6.245304,46.9781 30.667316,47.606 2.927662,0.0752 9.558284,-2.00835 14.734717,-4.63026 z M 620.3538,586.66218 C 598.36148,582.0877 580.5379,566.04686 571.74242,542.913 l -1.80256,-4.74108 H 366.36526 162.79064 l -4.48783,-5.3335 c -4.90218,-5.82591 -5.5752,-10.18778 -2.47118,-16.01579 4.44521,-8.34623 -4.4316,-8.00665 210.8244,-8.06501 192.06002,-0.0522 203.36226,-0.22296 204.30902,-3.08875 3.51465,-10.63874 11.21004,-22.64227 19.19357,-29.93877 12.49542,-11.42013 25.09091,-16.15604 42.96804,-16.15604 19.63397,0 31.45437,4.87232 45.22259,18.64054 13.76823,13.76822 18.64055,25.58862 18.64055,45.22259 0,19.63399 -4.87232,31.45438 -18.64055,45.22261 -7.53422,7.53423 -13.33609,11.59265 -20.28369,14.1885 -11.71209,4.376 -27.38774,5.96132 -37.71176,3.81388 z m 28.70187,-34.11844 c 20.04089,-10.35307 23.51552,-39.16333 6.52266,-54.08326 -24.97491,-21.92826 -63.37037,2.03861 -54.42872,33.975 2.66372,9.51393 12.02754,19.70724 20.7911,22.63289 8.00745,2.67324 19.04206,1.64581 27.11496,-2.52463 z m -476.30558,-90.51231 -5.06715,-5.06714 v -59.20556 -59.20556 l 5.06715,-5.06715 c 5.63994,-5.63992 10.07079,-6.29231 17.31021,-2.54864 8.62273,4.45899 9.00422,7.61961 8.46074,70.09803 l -0.50191,57.69957 -4.86378,4.1818 c -6.72707,5.78382 -14.054,5.46592 -20.40526,-0.88535 z m 116.80762,0.88415 -4.86379,-4.18297 -0.472,-108.90871 c -0.34586,-79.79899 0.0669,-110.20979 1.54429,-113.77649 4.3226,-10.43569 18.76722,-12.38064 25.77578,-3.47069 3.41192,4.33753 3.48813,6.83726 3.48813,114.411 v 109.97657 l -5.06715,5.06714 c -6.35185,6.35186 -13.67854,6.66932 -20.40526,0.88415 z m 119.94794,2.08925 c -7.64838,-4.38635 -7.68798,-4.73151 -7.74559,-67.52538 l -0.0552,-60.0849 5.33349,-4.48782 c 6.10572,-5.13763 10.07609,-5.57253 17.20734,-1.88482 3.40137,1.75892 5.61885,4.71013 6.83823,9.10084 1.06276,3.82685 1.80454,27.51865 1.80454,57.63598 0,30.11733 -0.74178,53.80913 -1.80454,57.63597 -2.68101,9.65384 -13.27509,14.37202 -21.57832,9.61013 z m 113.41066,-2.9734 -5.06714,-5.06714 V 346.98772 c 0,-107.57374 0.0761,-110.07347 3.48811,-114.411 6.88053,-8.74716 22.21446,-6.80746 26.05579,3.296 0.99214,2.60952 1.65903,47.92311 1.65903,112.72756 v 108.36401 l -5.06715,5.06714 c -3.45833,3.45832 -6.80298,5.06714 -10.53431,5.06714 -3.73135,0 -7.07601,-1.60882 -10.53433,-5.06714 z M 54.874492,433.15632 50.671952,428.6835 50.201531,279.26889 49.731108,129.85428 41.20159,126.82486 C 28.939775,122.46986 14.752767,108.83432 7.809723,94.731001 2.6911296,84.333651 2.1465373,81.752285 2.2611793,68.430922 2.4235076,49.568399 7.0248276,37.187908 18.566313,24.559679 43.85824,-3.1137126 85.013315,-4.0838637 111.41124,22.37104 c 19.77928,19.821975 24.68437,48.500535 12.59616,73.646094 -5.7368,11.933536 -21.25375,26.608336 -32.617242,30.846976 l -9.515275,3.54927 -0.866748,150.2944 -0.866747,150.29442 -4.092411,3.31347 c -6.076447,4.91987 -15.971665,4.37808 -21.174485,-1.15935 z M 85.092957,94.920558 C 98.759689,85.263394 103.10504,69.253834 96.170643,54.107112 91.553434,44.021805 85.861197,38.966228 75.244288,35.521334 49.681363,27.22684 24.674955,55.049558 35.153223,80.127587 43.523141,100.15962 67.589855,107.28858 85.092957,94.920558 Z M 172.75009,283.48134 c -8.65766,-8.65767 -7.46903,-12.24913 15.11558,-45.67206 C 285.73801,92.968179 289.39815,87.73009 294.09298,85.78542 c 7.65651,-3.171427 13.54163,-0.541033 20.71497,9.258715 3.57789,4.887848 24.10915,35.019455 45.62503,66.959115 21.51589,31.93968 42.9875,63.68241 47.71468,70.5394 l 8.59488,12.46729 39.26565,-58.28041 c 21.59608,-32.05424 38.93724,-58.60882 38.53587,-59.01018 -0.40137,-0.40137 -6.0695,0.64579 -12.59584,2.32702 -6.90054,1.77762 -13.83172,2.56343 -16.56334,1.87785 -5.77146,-1.44855 -10.51941,-8.32424 -10.51941,-15.23359 0,-9.94868 5.38119,-12.80807 43.89602,-23.324979 34.31778,-9.370851 35.5857,-9.584305 41.15552,-6.928246 3.16077,1.50727 6.42516,4.524554 7.2542,6.705094 2.7264,7.170961 6.07571,73.685221 3.9458,78.359881 -5.10543,11.2052 -20.13182,12.40451 -26.41007,2.10791 -2.34837,-3.85147 -3.3798,-8.69077 -3.3843,-15.87885 -0.005,-8.85272 -0.34961,-9.97417 -2.39318,-7.80074 -1.31269,1.39608 -22.40071,32.18112 -46.86227,68.41118 -31.87,47.20271 -45.88362,66.55269 -49.44351,68.27149 -5.49953,2.65532 -12.29594,1.64279 -16.37886,-2.44012 -1.45008,-1.45008 -25.80758,-36.94224 -54.12779,-78.87146 -28.3202,-41.92923 -51.95564,-76.21354 -52.5232,-76.18738 -0.56757,0.0262 -24.43413,34.80683 -53.03682,77.29037 -34.3334,50.99536 -53.59551,78.07545 -56.6859,79.69324 -7.02708,3.67858 -11.51107,2.99326 -17.12102,-2.61668 z"
       id="path1" />
  </g>
</svg>
