<?xml version="1.0" encoding="UTF-8" standalone="no"?>
<!-- Created with Inkscape (http://www.inkscape.org/) -->

<svg
   version="1.1"
   id="svg1"
   width="69.486"
   height="52.892155"
   viewBox="0 0 347.43 264.46077"
   sodipodi:docname="dashboard_1.svg"
   inkscape:version="1.4.1-rc (06eac75fbf, 2025-03-29)"
   xmlns:inkscape="http://www.inkscape.org/namespaces/inkscape"
   xmlns:sodipodi="http://sodipodi.sourceforge.net/DTD/sodipodi-0.dtd"
   xmlns="http://www.w3.org/2000/svg"
   xmlns:svg="http://www.w3.org/2000/svg">
  <defs
     id="defs1" />
  <sodipodi:namedview
     id="namedview1"
     pagecolor="#ffffff"
     bordercolor="#000000"
     borderopacity="0.25"
     inkscape:showpageshadow="2"
     inkscape:pageopacity="0.0"
     inkscape:pagecheckerboard="0"
     inkscape:deskcolor="#d1d1d1"
     inkscape:zoom="8.858832"
     inkscape:cx="24.213124"
     inkscape:cy="31.945521"
     inkscape:window-width="1920"
     inkscape:window-height="1011"
     inkscape:window-x="0"
     inkscape:window-y="32"
     inkscape:window-maximized="1"
     inkscape:current-layer="g1" />
  <g
     inkscape:groupmode="layer"
     inkscape:label="Image"
     id="g1"
     transform="translate(-1.623199,-41.644921)">
    <g
       id="g2"
       transform="matrix(1.2346722,0,0,1.2346722,0.6380331,40.402389)"
       style="fill:#5f5ce8;fill-opacity:1">
      <path
         style="fill:#5f5ce8;fill-opacity:1"
         d="m 152.34527,186.05333 c 0.0154,-0.37278 0.0912,-0.4486 0.19333,-0.19333 0.0924,0.231 0.0811,0.507 -0.0253,0.61333 -0.10634,0.10634 -0.18197,-0.0827 -0.16807,-0.42 z M 239.19166,163.84 c 0,-12.584 0.0397,-17.732 0.0882,-11.44 0.0485,6.292 0.0485,16.588 0,22.88 -0.0485,6.292 -0.0882,1.144 -0.0882,-11.44 z m -86.72912,11.52 c 0,-5.544 0.0436,-7.812 0.0969,-5.04 0.0533,2.772 0.0533,7.308 0,10.08 -0.0533,2.772 -0.0969,0.504 -0.0969,-5.04 z M 138.88,143.25987 c 0,-0.0551 0.468,-0.52307 1.04,-1.04 l 1.04,-0.93987 -0.93987,1.04 c -0.87609,0.96943 -1.14013,1.18709 -1.14013,0.93987 z m 4.64,-4.69987 c 1.22256,-1.232 2.29484,-2.24 2.38284,-2.24 0.088,0 -0.84028,1.008 -2.06284,2.24 -1.22256,1.232 -2.29483,2.24 -2.38283,2.24 -0.088,0 0.84027,-1.008 2.06283,-2.24 z m 4.48,-4.48 c 1.04498,-1.056 1.97197,-1.92 2.05997,-1.92 0.088,0 -0.69499,0.864 -1.73997,1.92 -1.04498,1.056 -1.97196,1.92 -2.05996,1.92 -0.088,0 0.69498,-0.864 1.73996,-1.92 z m 2.4,-2.32801 c 0,-0.0484 1.116,-1.1644 2.48,-2.48 l 2.48,-2.39199 -2.39199,2.48 c -2.22163,2.30337 -2.56801,2.62601 -2.56801,2.39199 z m 6.56,-6.63199 c 0.86677,-0.88 1.64794,-1.6 1.73594,-1.6 0.088,0 -0.54917,0.72 -1.41594,1.6 -0.86676,0.88 -1.64794,1.6 -1.73594,1.6 -0.088,0 0.54918,-0.72 1.41594,-1.6 z m -75.593908,-2.14176 c 0.311349,-0.0811 0.743349,-0.0758 0.96,0.0119 0.21665,0.0877 -0.03809,0.15404 -0.566091,0.14752 -0.528,-0.007 -0.705259,-0.0782 -0.393909,-0.15938 z M 160,122.08 c 0.59705,-0.616 1.15755,-1.12 1.24555,-1.12 0.088,0 -0.3285,0.504 -0.92555,1.12 -0.59705,0.616 -1.15754,1.12 -1.24554,1.12 -0.088,0 0.32849,-0.504 0.92554,-1.12 z m 1.92,-1.86013 c 0,-0.0551 0.468,-0.52307 1.04,-1.04 L 164,118.24 l -0.93987,1.04 c -0.87609,0.96943 -1.14013,1.18709 -1.14013,0.93987 z m 2.56,-2.56 c 0,-0.0551 0.468,-0.52307 1.04,-1.04 l 1.04,-0.93987 -0.93987,1.04 c -0.87609,0.96943 -1.14013,1.18709 -1.14013,0.93987 z m 2.88,-2.93987 c 0.41336,-0.44 0.82356,-0.8 0.91156,-0.8 0.088,0 -0.1782,0.36 -0.59156,0.8 -0.41336,0.44 -0.82356,0.8 -0.91156,0.8 -0.088,0 0.1782,-0.36 0.59156,-0.8 z m -59.52,-10.18013 c 0,-0.0551 0.468,-0.52307 1.04,-1.04 l 1.04,-0.93987 -0.93987,1.04 c -0.87609,0.96943 -1.14013,1.18709 -1.14013,0.93987 z M 57.600001,95.52 c 0.413359,-0.44 0.823561,-0.8 0.911561,-0.8 0.088,0 -0.178202,0.36 -0.591561,0.8 -0.413359,0.44 -0.823561,0.8 -0.911561,0.8 -0.088,0 0.178202,-0.36 0.591561,-0.8 z m 2.08,-2.08 c 0.318556,-0.352 0.651192,-0.64 0.739192,-0.64 0.088,0 -0.100636,0.288 -0.419192,0.64 -0.318556,0.352 -0.651192,0.64 -0.739192,0.64 -0.088,0 0.100636,-0.288 0.419192,-0.64 z m 2.56,-2.56 c 0.318556,-0.352 0.651192,-0.64 0.739192,-0.64 0.088,0 -0.100636,0.288 -0.419192,0.64 -0.318556,0.352 -0.651192,0.64 -0.739192,0.64 -0.088,0 0.100636,-0.288 0.419192,-0.64 z m 2.72,-2.72 c 0.413359,-0.44 0.823561,-0.8 0.911561,-0.8 0.088,0 -0.178202,0.36 -0.591561,0.8 -0.413358,0.44 -0.823561,0.8 -0.911561,0.8 -0.088,0 0.178203,-0.36 0.591561,-0.8 z m 2.56,-2.56 c 0.597051,-0.616 1.157547,-1.12 1.245547,-1.12 0.088,0 -0.328496,0.504 -0.925547,1.12 -0.597051,0.616 -1.157547,1.12 -1.245547,1.12 -0.088,0 0.328496,-0.504 0.925547,-1.12 z m 2.56,-2.56 c 0.413359,-0.44 0.823561,-0.8 0.911561,-0.8 0.088,0 -0.178202,0.36 -0.591561,0.8 -0.413358,0.44 -0.823561,0.8 -0.911561,0.8 -0.088,0 0.178203,-0.36 0.591561,-0.8 z m 2.4,-2.4 C 72.798557,80.288 73.131193,80 73.219193,80 c 0.088,0 -0.100636,0.288 -0.419192,0.64 -0.318555,0.352 -0.651192,0.64 -0.739192,0.64 -0.088,0 0.100637,-0.288 0.419192,-0.64 z m 2.56,-2.56 c 0.318556,-0.352 0.651192,-0.64 0.739192,-0.64 0.088,0 -0.100636,0.288 -0.419192,0.64 -0.318555,0.352 -0.651192,0.64 -0.739192,0.64 -0.088,0 0.100637,-0.288 0.419192,-0.64 z m 2.4,-2.4 c 0.413359,-0.44 0.823561,-0.8 0.911561,-0.8 0.088,0 -0.178202,0.36 -0.591561,0.8 -0.413358,0.44 -0.823561,0.8 -0.911561,0.8 -0.088,0 0.178203,-0.36 0.591561,-0.8 z M 109.2496,49.52 108.64,48.8 l 0.72,0.609596 c 0.67662,0.57287 0.86568,0.830404 0.6096,0.830404 -0.0607,0 -0.38472,-0.324 -0.72,-0.72 z m 6.54958,-4.96 c -0.39803,-0.507538 -0.38672,-0.518856 0.12082,-0.120818 0.308,0.241551 0.56,0.493551 0.56,0.56 0,0.263371 -0.26278,0.09386 -0.68082,-0.439182 z m -3.02958,-3.04 -0.6096,-0.72 0.72,0.609596 c 0.396,0.335278 0.72,0.659278 0.72,0.72 0,0.256081 -0.25753,0.06703 -0.8304,-0.609596 z m -69.089599,-2.8 c 0.318555,-0.352 0.651192,-0.64 0.739192,-0.64 0.088,0 -0.100637,0.288 -0.419192,0.64 -0.318556,0.352 -0.651192,0.64 -0.739192,0.64 -0.088,0 0.100636,-0.288 0.419192,-0.64 z m 35.94,-9.178596 c 0.231,-0.09244 0.507,-0.08107 0.613334,0.02526 0.106333,0.106333 -0.08267,0.181965 -0.42,0.16807 -0.372782,-0.01535 -0.448608,-0.09118 -0.193334,-0.193333 z m 3.5,0.0067 c 0.22,-0.08877 0.58,-0.08877 0.8,0 0.22,0.08877 0.04,0.161404 -0.4,0.161404 -0.44,0 -0.62,-0.07263 -0.4,-0.161404 z M 253.39919,28.56 c -0.39804,-0.507538 -0.38672,-0.518856 0.12081,-0.120818 0.53304,0.418039 0.70256,0.680818 0.43919,0.680818 -0.0665,0 -0.31845,-0.252 -0.56,-0.56 z"
         id="path8" />
      <path
         style="fill:#5f5ce8;fill-opacity:1"
         d="m 7.1979137,108.16 c 0,-53.064 0.036935,-74.772 0.082079,-48.24 0.045143,26.532 0.045143,69.948 0,96.48 -0.045143,26.532 -0.082079,4.824 -0.082079,-48.24 z m 268.4799963,0.32 c 0,-52.888 0.0369,-74.524 0.0821,-48.08 0.0451,26.444 0.0451,69.716 0,96.16 -0.0451,26.444 -0.0821,4.808 -0.0821,-48.08 z m -140.49639,68.8 c 0,-5.192 0.044,-7.316 0.0978,-4.72 0.0538,2.596 0.0538,6.844 0,9.44 -0.0538,2.596 -0.0978,0.472 -0.0978,-4.72 z m 55.68645,-5.92 c 6e-5,-8.448 0.0414,-11.85804 0.0918,-7.57788 0.0504,4.28017 0.0504,11.19217 -1.1e-4,15.36 -0.0505,4.16784 -0.0918,0.66588 -0.0917,-7.78212 z M 206.08,127.87918 c 0,-0.0665 0.252,-0.31845 0.56,-0.56 0.50754,-0.39804 0.51886,-0.38672 0.12082,0.12082 -0.41804,0.53304 -0.68082,0.70255 -0.68082,0.43918 z M 79.920001,122.98807 c 0.22,-0.0888 0.58,-0.0888 0.8,0 0.22,0.0888 0.04,0.1614 -0.4,0.1614 -0.44,0 -0.62,-0.0726 -0.4,-0.1614 z m 2.9,-0.007 c 0.231,-0.0924 0.507,-0.0811 0.613334,0.0253 0.106333,0.10633 -0.08267,0.18196 -0.42,0.16807 -0.372782,-0.0154 -0.448608,-0.0912 -0.193334,-0.19334 z M 117.6,115.52 c 0.31856,-0.352 0.65119,-0.64 0.73919,-0.64 0.088,0 -0.10063,0.288 -0.41919,0.64 -0.31855,0.352 -0.65119,0.64 -0.73919,0.64 -0.088,0 0.10064,-0.288 0.41919,-0.64 z m 2.72,-2.68082 c 0,-0.0665 0.252,-0.31845 0.56,-0.56 0.50754,-0.39804 0.51886,-0.38672 0.12082,0.12082 -0.41804,0.53304 -0.68082,0.70255 -0.68082,0.43918 z m -7.68,-1.6 c 0,-0.0665 0.252,-0.31845 0.56,-0.56 0.50754,-0.39804 0.51886,-0.38672 0.12082,0.12082 -0.41804,0.53304 -0.68082,0.70255 -0.68082,0.43918 z M 53.079183,102.16 c -0.398038,-0.50754 -0.38672,-0.51886 0.120818,-0.12082 0.533039,0.41804 0.702553,0.68082 0.439182,0.68082 -0.06645,0 -0.31845,-0.252 -0.56,-0.56 z M 120.02527,77.893333 c 0.0153,-0.372781 0.0912,-0.448607 0.19333,-0.193333 0.0924,0.231 0.0811,0.507 -0.0253,0.613333 -0.10634,0.106334 -0.18197,-0.08267 -0.16807,-0.42 z m -70.400006,-0.32 c 0.01535,-0.372781 0.09118,-0.448607 0.193333,-0.193333 0.09244,0.231 0.08107,0.507 -0.02526,0.613333 -0.106333,0.106334 -0.181965,-0.08267 -0.16807,-0.42 z M 49.687157,75.52 c 0,-0.792 0.0624,-1.116 0.138678,-0.72 0.07627,0.396 0.07627,1.044 0,1.44 -0.07627,0.396 -0.138678,0.072 -0.138678,-0.72 z m 70.338113,-0.826667 c 0.0153,-0.372781 0.0912,-0.448607 0.19333,-0.193333 0.0924,0.231 0.0811,0.507 -0.0253,0.613333 -0.10634,0.106334 -0.18197,-0.08267 -0.16807,-0.42 z M 84.947117,58.88 c 0,-7.832 0.04165,-11.036 0.09256,-7.12 0.05091,3.916 0.05091,10.324 0,14.24 -0.05091,3.916 -0.09256,0.712 -0.09256,-7.12 z m 19.332063,-5.04 c -0.39803,-0.507538 -0.38672,-0.518856 0.12082,-0.120818 0.53304,0.418039 0.70256,0.680818 0.43918,0.680818 -0.0665,0 -0.31845,-0.252 -0.56,-0.56 z M 191.62,27.621404 c 0.231,-0.09244 0.507,-0.08107 0.61334,0.02526 0.10633,0.106333 -0.0827,0.181965 -0.42,0.16807 -0.37279,-0.01535 -0.44861,-0.09118 -0.19334,-0.193333 z m 24.62,-0.02128 c 6.38,-0.04846 16.82,-0.04846 23.2,0 6.38,0.04846 1.16,0.08811 -11.6,0.08811 -12.76,0 -17.98,-0.03965 -11.6,-0.08811 z M 3.5200001,4.6791823 c 0,-0.06645 0.252,-0.3184497 0.56,-0.56 C 4.5875379,3.7211437 4.5988564,3.7324622 4.2008178,4.24 3.7827794,4.7730394 3.5200001,4.9425532 3.5200001,4.6791823 Z"
         id="path7" />
      <path
         style="fill:#5f5ce8;fill-opacity:1"
         d="M 76.240001,215.12 C 112.1,215.0752 170.78,215.0752 206.64,215.12 c 35.86,0.0448 6.52,0.0815 -65.2,0.0815 -71.719999,0 -101.059999,-0.0367 -65.199999,-0.0815 z M 183.51041,167.04 c 0,-10.824 0.0402,-15.252 0.0894,-9.84 0.0492,5.412 0.0492,14.268 0,19.68 -0.0492,5.412 -0.0894,0.984 -0.0894,-9.84 z m 24.63671,5.44 c 0,-7.832 0.0417,-11.036 0.0926,-7.12 0.0509,3.916 0.0509,10.324 0,14.24 -0.0509,3.916 -0.0926,0.712 -0.0926,-7.12 z M 129.6,162.43918 c 0,-0.0665 0.252,-0.31845 0.56,-0.56 0.50754,-0.39804 0.51886,-0.38672 0.12082,0.12082 -0.41804,0.53304 -0.68082,0.70255 -0.68082,0.43918 z M 151.68,139.68 c 5.01369,-5.016 9.18779,-9.12 9.27579,-9.12 0.088,0 -3.9421,4.104 -8.95579,9.12 -5.01368,5.016 -9.18779,9.12 -9.27579,9.12 -0.088,0 3.94211,-4.104 8.95579,-9.12 z m 10.56,-10.56 c 0.59705,-0.616 1.15755,-1.12 1.24555,-1.12 0.088,0 -0.3285,0.504 -0.92555,1.12 -0.59705,0.616 -1.15754,1.12 -1.24554,1.12 -0.088,0 0.32849,-0.504 0.92554,-1.12 z m 2.56,-2.56 c 0.59705,-0.616 1.15755,-1.12 1.24555,-1.12 0.088,0 -0.3285,0.504 -0.92555,1.12 -0.59705,0.616 -1.15754,1.12 -1.24554,1.12 -0.088,0 0.32849,-0.504 0.92554,-1.12 z m 2.56,-2.56 c 0.59705,-0.616 1.15755,-1.12 1.24555,-1.12 0.088,0 -0.3285,0.504 -0.92555,1.12 -0.59705,0.616 -1.15754,1.12 -1.24554,1.12 -0.088,0 0.32849,-0.504 0.92554,-1.12 z m -83.579999,-1.0186 c 0.231,-0.0924 0.507,-0.0811 0.613334,0.0253 0.106333,0.10633 -0.08267,0.18196 -0.42,0.16807 -0.372782,-0.0154 -0.448608,-0.0912 -0.193334,-0.19334 z M 170.22663,121.2 c 0.78464,-0.836 1.46864,-1.52 1.52,-1.52 0.24028,0 -0.0138,0.2873 -1.42663,1.61337 L 168.8,122.72 Z m -90.606629,-6.5386 c 0.231,-0.0924 0.507,-0.0811 0.613334,0.0253 0.106333,0.10633 -0.08267,0.18196 -0.42,0.16807 -0.372782,-0.0154 -0.448608,-0.0912 -0.193334,-0.19334 z M 118.72,114.43918 c 0,-0.0664 0.252,-0.31845 0.56,-0.56 0.50754,-0.39804 0.51886,-0.38672 0.12082,0.12082 -0.41804,0.53304 -0.68082,0.70255 -0.68082,0.43918 z M 54.999183,104.08 c -0.398038,-0.50754 -0.38672,-0.51886 0.120818,-0.12082 0.308,0.24155 0.56,0.49355 0.56,0.56 0,0.26337 -0.262779,0.0939 -0.680818,-0.43918 z M 71.680001,90.72 c 5.541905,-5.544 10.148191,-10.08 10.236191,-10.08 0.088,0 -4.374286,4.536 -9.916191,10.08 -5.541904,5.544 -10.14819,10.08 -10.23619,10.08 -0.088,0 4.374286,-4.536 9.91619,-10.08 z M 191.62,79.461404 c 0.231,-0.09244 0.507,-0.08107 0.61334,0.02526 0.10633,0.106333 -0.0827,0.181965 -0.42,0.16807 -0.37279,-0.01535 -0.44861,-0.09118 -0.19334,-0.193333 z M 128.42243,76.16 c 0,-1.144 0.0581,-1.612 0.12906,-1.04 0.071,0.572 0.071,1.508 0,2.08 -0.071,0.572 -0.12906,0.104 -0.12906,-1.04 z m -8.34173,0.16 c 0.004,-0.704 0.0691,-0.954321 0.14563,-0.556269 0.0765,0.398052 0.0736,0.974052 -0.006,1.28 C 120.13977,77.349679 120.07715,77.024 120.0807,76.32 Z M 193.6,56.199182 c 0,-0.06645 0.252,-0.318449 0.56,-0.56 0.50754,-0.398038 0.51886,-0.38672 0.12082,0.120818 -0.41804,0.533039 -0.68082,0.702553 -0.68082,0.439182 z m 23.6,-5.879049 c 6.204,-0.04858 16.356,-0.04858 22.56,0 6.204,0.04858 1.128,0.08832 -11.28,0.08832 -12.408,0 -17.484,-0.03974 -11.28,-0.08832 z M 48.320001,43.36 c 0.597051,-0.616 1.157547,-1.12 1.245547,-1.12 0.088,0 -0.328496,0.504 -0.925547,1.12 -0.597051,0.616 -1.157547,1.12 -1.245547,1.12 -0.088,0 0.328496,-0.504 0.925547,-1.12 z M 76.586085,1.0400033 C 112.46043,0.9951524 171.06843,0.9951532 206.82609,1.0400052 242.58374,1.0848572 213.232,1.1215532 141.6,1.1215522 69.968001,1.1215512 40.711738,1.0848542 76.586085,1.0400033 Z"
         id="path6" />
      <path
         style="fill:#5f5ce8;fill-opacity:1"
         d="m 159.83019,167.52 c 4e-5,-10.56 0.0404,-14.83367 0.0897,-9.49704 0.0493,5.33663 0.0492,13.97663 -8e-5,19.2 -0.0493,5.22337 -0.0896,0.85704 -0.0896,-9.70296 z m 6.39952,0.64 c 5e-5,-10.032 0.0406,-14.08975 0.0901,-9.01722 0.0495,5.07253 0.0495,13.28053 -8e-5,18.24 -0.0496,4.95947 -0.0901,0.80922 -0.09,-9.22278 z m 33.86601,-9.99849 c 1.54864,-0.0588 3.99664,-0.0585 5.44,6.7e-4 1.44335,0.0591 0.17628,0.10725 -2.81572,0.10688 -2.992,-3.7e-4 -4.17293,-0.0488 -2.62428,-0.10755 z m -31.04001,-8.64 c 1.54865,-0.0588 3.99665,-0.0585 5.44001,6.7e-4 1.44335,0.0592 0.17628,0.10725 -2.81572,0.10688 -2.992,-3.7e-4 -4.17293,-0.0488 -2.62429,-0.10755 z m -1.11736,-6.4007 c 2.1661,-0.0554 5.6221,-0.0553 7.68,3.8e-4 2.05791,0.0557 0.28565,0.10102 -3.93835,0.10081 -4.224,-2.1e-4 -5.90774,-0.0457 -3.74165,-0.10119 z M 84.740001,129.3814 c 0.231,-0.0924 0.507,-0.0811 0.613334,0.0253 0.106333,0.10633 -0.08267,0.18196 -0.42,0.16807 -0.372782,-0.0154 -0.448608,-0.0912 -0.193334,-0.19334 z m -3.6956,-14.73103 c 0.48642,-0.0735 1.20642,-0.0716 1.6,0.004 0.39358,0.076 -0.0044,0.13614 -0.8844,0.13374 -0.88,-0.002 -1.20202,-0.0646 -0.7156,-0.13811 z M 47.809597,108.72 47.200001,108 l 0.72,0.6096 c 0.676622,0.57287 0.865677,0.8304 0.609596,0.8304 -0.06072,0 -0.384722,-0.324 -0.72,-0.72 z m 33.236495,-0.46176 c 0.311349,-0.0811 0.743349,-0.0758 0.96,0.0119 0.21665,0.0877 -0.03809,0.15404 -0.566091,0.14752 -0.528,-0.007 -0.705259,-0.0782 -0.393909,-0.15938 z M 233.54,105.3814 c 0.231,-0.0924 0.507,-0.0811 0.61334,0.0253 0.10633,0.10633 -0.0827,0.18196 -0.42,0.16807 -0.37278,-0.0154 -0.44861,-0.0912 -0.19334,-0.19334 z m -128.9,-6.942218 c 0,-0.06645 0.252,-0.318449 0.56,-0.56 0.50754,-0.398038 0.51886,-0.38672 0.12082,0.120818 -0.41804,0.533039 -0.68082,0.702553 -0.68082,0.439182 z M 91.280002,79.440307 c 4.004,-0.05078 10.555998,-0.05078 14.559998,0 4.004,0.05078 0.728,0.09232 -7.279998,0.09232 -8.008,0 -11.284,-0.04154 -7.28,-0.09232 z M 205.2,79.459416 c 0.308,-0.08049 0.812,-0.08049 1.12,0 0.308,0.08049 0.056,0.146343 -0.56,0.146343 -0.616,0 -0.868,-0.06585 -0.56,-0.146343 z m 12.96,-0.01928 c 6.028,-0.0487 15.892,-0.0487 21.92,0 6.028,0.0487 1.096,0.08854 -10.96,0.08854 -12.056,0 -16.988,-0.03984 -10.96,-0.08854 z M 134.77053,78.72 c 0,-0.44 0.0726,-0.62 0.1614,-0.4 0.0888,0.22 0.0888,0.58 0,0.8 -0.0888,0.22 -0.1614,0.04 -0.1614,-0.4 z m -0.0253,-4.986667 c 0.0153,-0.372781 0.0912,-0.448607 0.19333,-0.193333 0.0924,0.231 0.0811,0.507 -0.0253,0.613333 -0.10634,0.106334 -0.18197,-0.08267 -0.16807,-0.42 z M 191.62,73.061404 c 0.231,-0.09244 0.507,-0.08107 0.61334,0.02526 0.10633,0.106333 -0.0827,0.181965 -0.42,0.16807 -0.37279,-0.01535 -0.44861,-0.09118 -0.19334,-0.193333 z M 216.24,56.72012 c 6.556,-0.04835 17.284,-0.04835 23.84,0 6.556,0.04835 1.192,0.08791 -11.92,0.08791 -13.112,0 -18.476,-0.03956 -11.92,-0.08791 z m -11.2,-6.37205 c 0.22,-0.08877 0.58,-0.08877 0.8,0 0.22,0.08877 0.04,0.161404 -0.4,0.161404 -0.44,0 -0.62,-0.07263 -0.4,-0.161404 z M 54.400001,49.12 C 54.997052,48.504 55.557548,48 55.645548,48 c 0.088,0 -0.328496,0.504 -0.925547,1.12 -0.597051,0.616 -1.157547,1.12 -1.245547,1.12 -0.088,0 0.328496,-0.504 0.925547,-1.12 z m 65.255779,-10 -0.77578,-0.88 0.88,0.77578 C 120.58249,39.740864 120.78675,40 120.53578,40 c -0.0573,0 -0.45332,-0.396 -0.88,-0.88 z m -1.6166,-1.6 c -0.39803,-0.507538 -0.38672,-0.518856 0.12082,-0.120818 0.53304,0.418039 0.70256,0.680818 0.43918,0.680818 -0.0665,0 -0.31845,-0.252 -0.56,-0.56 z"
         id="path5" />
      <path
         style="fill:#5f5ce8;fill-opacity:1"
         d="m 76.266085,208.72 c 35.874345,-0.0448 94.482345,-0.0448 130.240005,1e-5 35.75765,0.0448 6.40591,0.0815 -65.22609,0.0815 -71.631999,0 -100.888262,-0.0367 -65.013915,-0.0815 z M 177.10987,168.16 c -4e-5,-10.208 0.0404,-14.43028 0.0899,-9.38285 0.0495,5.04744 0.0495,13.39944 8e-5,18.56 -0.0494,5.16057 -0.0899,1.03085 -0.09,-9.17715 z m 37.4381,3.2 c 6e-5,-8.448 0.0414,-11.85804 0.0918,-7.57788 0.0504,4.28017 0.0504,11.19217 -1.1e-4,15.36 -0.0505,4.16784 -0.0918,0.66588 -0.0917,-7.78212 z m -15.40991,-19.59912 c 2.07793,-0.0558 5.38993,-0.0556 7.36,4.1e-4 1.97007,0.056 0.26994,0.10172 -3.77806,0.1015 -4.048,-2.3e-4 -5.65987,-0.0461 -3.58194,-0.10191 z M 209.28,133.63918 c 0,-0.0665 0.252,-0.31845 0.56,-0.56 0.50754,-0.39804 0.51886,-0.38672 0.12082,0.12082 -0.41804,0.53304 -0.68082,0.70255 -0.68082,0.43918 z M 49.879183,110.8 c -0.398038,-0.50754 -0.38672,-0.51886 0.120818,-0.12082 0.308,0.24155 0.56,0.49355 0.56,0.56 0,0.26337 -0.26278,0.0939 -0.680818,-0.43918 z m 30.060818,-2.5386 c 0.231,-0.0924 0.507,-0.0811 0.613334,0.0253 0.106333,0.10633 -0.08267,0.18196 -0.42,0.16807 -0.372782,-0.0154 -0.448608,-0.0912 -0.193334,-0.19334 z m 2.54,0.007 c 0.22,-0.0888 0.58,-0.0888 0.8,0 0.22,0.0888 0.04,0.1614 -0.4,0.1614 -0.44,0 -0.62,-0.0726 -0.4,-0.1614 z M 134.77053,77.44 c 0,-0.44 0.0726,-0.62 0.1614,-0.4 0.0888,0.22 0.0888,0.58 0,0.8 -0.0888,0.22 -0.1614,0.04 -0.1614,-0.4 z m 0.0237,-2.24 c 0,-0.616 0.0659,-0.868 0.14635,-0.56 0.0805,0.308 0.0805,0.812 0,1.12 -0.0805,0.308 -0.14635,0.056 -0.14635,-0.56 z M 85.526092,73.058243 c 0.311349,-0.08113 0.743349,-0.0758 0.96,0.01186 0.21665,0.08766 -0.03809,0.154038 -0.566091,0.147516 -0.528,-0.0065 -0.705259,-0.07824 -0.393909,-0.159373 z m 7.83391,-0.01786 c 3.564,-0.0515 9.395998,-0.0515 12.959998,0 3.564,0.0515 0.648,0.09363 -6.479998,0.09363 -7.128,0 -10.044,-0.04214 -6.48,-0.09363 z m 122.696378,-2.35e-4 c 6.45501,-0.04839 17.11101,-0.04841 23.68,-5.1e-5 6.56899,0.04836 1.28762,0.08796 -11.73638,0.08798 -13.024,2.8e-5 -18.39863,-0.03954 -11.94362,-0.08793 z M 78.425265,44.933333 c 0.01535,-0.372781 0.09118,-0.448607 0.193333,-0.193333 0.09244,0.231 0.08107,0.507 -0.02526,0.613333 -0.106334,0.106334 -0.181965,-0.08267 -0.16807,-0.42 z M 114.19918,42.64 c -0.39803,-0.507538 -0.38672,-0.518856 0.12082,-0.120818 0.308,0.241551 0.56,0.493551 0.56,0.56 0,0.263371 -0.26278,0.09386 -0.68082,-0.439182 z M 80.720001,37.850799 c 0.484,-0.07332 1.276,-0.07332 1.76,0 0.484,0.07332 0.088,0.133308 -0.88,0.133308 -0.968,0 -1.364,-0.05999 -0.88,-0.133308 z m -35.28,-0.531617 c 0,-0.06645 0.252,-0.318449 0.56,-0.56 0.507538,-0.398038 0.518856,-0.38672 0.120817,0.120818 -0.418038,0.533039 -0.680817,0.702553 -0.680817,0.439182 z m 39.3,-14.177778 c 0.231,-0.09244 0.507,-0.08107 0.613334,0.02526 0.106333,0.106333 -0.08267,0.181965 -0.42,0.16807 -0.372782,-0.01535 -0.448608,-0.09118 -0.193334,-0.193333 z m -8.34,-15.7013997 c 35.771999,-0.044853 94.307999,-0.044853 130.079999,0 35.772,0.044853 6.504,0.08155 -65.04,0.08155 -71.543999,0 -100.811999,-0.036698 -65.039999,-0.08155 z"
         id="path4" />
      <path
         style="fill:#5f5ce8;fill-opacity:1"
         d="m 0.79791694,108.32 c 1.87e-6,-53.152 0.0369365,-74.848352 0.082077,-48.214116 0.0451405,26.634237 0.045139,70.122236 -3.39e-6,96.639996 -0.0451424,26.51777 -0.0820755,4.72612 -0.0820736,-48.42588 z m 281.28000306,0 c 0,-53.152 0.0369,-74.848352 0.0821,-48.214116 0.0451,26.634237 0.0451,70.122236 0,96.639996 -0.0452,26.51777 -0.0821,4.72612 -0.0821,-48.42588 z m -153.29427,67.52 c 1.2e-4,-5.984 0.0433,-8.38678 0.0959,-5.33951 0.0526,3.04726 0.0525,7.94326 -2.1e-4,10.88 -0.0528,2.93673 -0.0958,0.44351 -0.0957,-5.54049 z M 197.26643,172 c 8e-5,-7.392 0.0421,-10.37031 0.0933,-6.61846 0.0512,3.75185 0.0512,9.79985 -1.5e-4,13.44 -0.0513,3.64015 -0.0932,0.57046 -0.0931,-6.82154 z m -59.96116,-25.62667 c 0.0153,-0.37278 0.0912,-0.4486 0.19333,-0.19333 0.0924,0.231 0.0811,0.507 -0.0253,0.61333 -0.10634,0.10634 -0.18197,-0.0827 -0.16807,-0.42 z m 6.37473,-7.61415 c 0,-0.0664 0.252,-0.31845 0.56,-0.56 0.50754,-0.39804 0.51886,-0.38672 0.12082,0.12082 -0.41804,0.53304 -0.68082,0.70255 -0.68082,0.43918 z m 5.76,-5.79918 c 0.41336,-0.44 0.82356,-0.8 0.91156,-0.8 0.088,0 -0.1782,0.36 -0.59156,0.8 -0.41336,0.44 -0.82356,0.8 -0.91156,0.8 -0.088,0 0.1782,-0.36 0.59156,-0.8 z m -69.673908,-3.58176 c 0.311349,-0.0811 0.743349,-0.0758 0.96,0.0119 0.21665,0.0877 -0.03809,0.15404 -0.566091,0.14752 -0.528,-0.007 -0.705259,-0.0782 -0.393909,-0.15938 z m 3.033909,0.01 c 0.22,-0.0888 0.58,-0.0888 0.8,0 0.22,0.0888 0.04,0.1614 -0.4,0.1614 -0.44,0 -0.62,-0.0726 -0.4,-0.1614 z M 206.72,127.55918 c 0,-0.0665 0.252,-0.31845 0.56,-0.56 0.50754,-0.39804 0.51886,-0.38672 0.12082,0.12082 -0.41804,0.53304 -0.68082,0.70255 -0.68082,0.43918 z m -47.68,-4.16 c 0,-0.0665 0.252,-0.31845 0.56,-0.56 0.50754,-0.39804 0.51886,-0.38672 0.12082,0.12082 -0.41804,0.53304 -0.68082,0.70255 -0.68082,0.43918 z m 7.68,-7.68 c 0,-0.0664 0.252,-0.31845 0.56,-0.56 0.50754,-0.39804 0.51886,-0.38672 0.12082,0.12082 -0.41804,0.53304 -0.68082,0.70255 -0.68082,0.43918 z M 44.135781,114 l -0.77578,-0.88 0.88,0.77578 c 0.822492,0.72508 1.026748,0.98422 0.77578,0.98422 -0.05732,0 -0.45332,-0.396 -0.88,-0.88 z M 235.52,111.23918 c 0,-0.0665 0.252,-0.31845 0.56,-0.56 0.50754,-0.39804 0.51886,-0.38672 0.12082,0.12082 -0.41804,0.53304 -0.68082,0.70255 -0.68082,0.43918 z m -120.64,-1.92 c 0,-0.0665 0.252,-0.31845 0.56,-0.56 0.50754,-0.39804 0.51886,-0.38672 0.12082,0.12082 -0.41804,0.53304 -0.68082,0.70255 -0.68082,0.43918 z M 83.780001,108.2614 c 0.231,-0.0924 0.507,-0.0811 0.613334,0.0253 0.106333,0.10633 -0.08267,0.18196 -0.42,0.16807 -0.372782,-0.0154 -0.448608,-0.0912 -0.193334,-0.19334 z M 108.16,103.84 c 0.59705,-0.616 1.15755,-1.12 1.24555,-1.12 0.088,0 -0.3285,0.504 -0.92555,1.12 -0.59705,0.616 -1.15754,1.12 -1.24554,1.12 -0.088,0 0.32849,-0.504 0.92554,-1.12 z M 56.52238,96.388571 c -0.08546,-0.138285 0.111464,-0.251428 0.437621,-0.251428 0.326157,0 0.523086,0.113143 0.437621,0.251428 -0.08547,0.138286 -0.282395,0.251429 -0.437621,0.251429 -0.155226,0 -0.352155,-0.113143 -0.437621,-0.251429 z M 43.250527,77.44 c 0,-0.44 0.07263,-0.62 0.161404,-0.4 0.08877,0.22 0.08877,0.58 0,0.8 -0.08877,0.22 -0.161404,0.04 -0.161404,-0.4 z M 201.62527,76.293333 c 0.0154,-0.372781 0.0912,-0.448607 0.19333,-0.193333 0.0924,0.231 0.0811,0.507 -0.0253,0.613333 -0.10634,0.106334 -0.18197,-0.08267 -0.16807,-0.42 z M 43.250527,74.88 c 0,-0.44 0.07263,-0.62 0.161404,-0.4 0.08877,0.22 0.08877,0.58 0,0.8 -0.08877,0.22 -0.161404,0.04 -0.161404,-0.4 z m 35.29709,-14.72 c 0,-8.184 0.04144,-11.532 0.09209,-7.44 0.05065,4.092 0.05065,10.788 0,14.88 -0.05065,4.092 -0.09209,0.744 -0.09209,-7.44 z M 57.920001,54.599182 c 0,-0.06645 0.252,-0.318449 0.56,-0.56 0.507538,-0.398038 0.518856,-0.38672 0.120818,0.120818 -0.418039,0.533039 -0.680818,0.702553 -0.680818,0.439182 z M 115.3296,43.76 114.72,43.04 l 0.72,0.609596 c 0.396,0.335278 0.72,0.659278 0.72,0.72 0,0.256081 -0.25753,0.06703 -0.8304,-0.609596 z M 44.480001,38.24 c 0.413358,-0.44 0.823561,-0.8 0.911561,-0.8 0.088,0 -0.178203,0.36 -0.591561,0.8 -0.413359,0.44 -0.823561,0.8 -0.911561,0.8 -0.088,0 0.178202,-0.36 0.591561,-0.8 z M 216.05638,34.000147 c 6.45501,-0.04839 17.11101,-0.04841 23.68,-5.1e-5 6.56899,0.04836 1.28762,0.08796 -11.73638,0.08799 -13.024,2.8e-5 -18.39863,-0.03954 -11.94362,-0.08793 z m -14.43111,-3.146814 c 0.0154,-0.372781 0.0912,-0.448607 0.19333,-0.193333 0.0924,0.231 0.0811,0.507 -0.0253,0.613333 -0.10634,0.106334 -0.18197,-0.08267 -0.16807,-0.42 z"
         id="path3" />
      <path
         style="fill:#5f5ce8;fill-opacity:1"
         d="m 8.8000002,214.59525 c -2.994084,-0.94388 -5.1244595,-2.6817 -6.5811183,-5.36842 L 1.12,207.2 V 108.16 9.12 L 1.9703616,7.5091266 C 3.1483851,5.2775504 5.0117243,3.4572038 7.2358335,2.3651444 L 9.1200002,1.44 H 141.44 273.76 l 1.76,0.8276349 c 2.20501,1.0368952 4.41775,3.1701026 5.44821,5.2523651 l 0.79179,1.6 v 99.04 99.04 l -0.84744,1.6 c -1.15946,2.18909 -3.12192,4.10074 -5.31556,5.17793 L 273.76,214.88 141.92,214.9394 C 36.592314,214.98683 9.8225991,214.91763 8.8000002,214.59525 Z M 273.47678,208.14023 c 0.48602,-0.36288 1.18058,-1.05743 1.54345,-1.54346 l 0.65977,-0.88368 0.0815,-97.36693 0.0815,-97.366927 -0.72155,-1.0601931 C 274.7247,9.3359335 273.99345,8.557606 273.49654,8.1894232 L 272.59307,7.52 H 141.44 10.286932 L 9.3834659,8.1894232 C 8.8865597,8.557606 8.1560001,9.3349012 7.7600001,9.9167459 l -0.72,1.0578991 v 97.088565 c 0,82.75949 0.066355,97.2161 0.4495955,97.95268 0.6212524,1.19403 1.8510062,2.28428 2.9485814,2.61409 0.513898,0.15442 58.722202,0.25333 131.538373,0.22351 L 272.59309,208.8 Z M 30.400368,192.72736 c -2.967919,-1.50395 -2.027538,-5.67281 1.279633,-5.67281 2.232217,0 3.605174,2.0768 2.740471,4.14537 -0.770827,1.844 -2.27076,2.4139 -4.020104,1.52744 z m 13.5594,0.33202 c -2.140355,-0.41996 -2.92707,-3.51744 -1.305325,-5.13938 l 0.879896,-0.88 23.911937,-0.0861 c 25.093063,-0.0903 25.180804,-0.0859 26.16647,1.32136 0.54988,0.78507 0.611533,2.53719 0.121498,3.45283 -0.829475,1.54989 -0.914588,1.55486 -25.803965,1.50829 -12.809653,-0.024 -23.596383,-0.10364 -23.970511,-0.17704 z m 78.283832,-0.0649 c -0.43802,-0.12192 -1.13245,-0.71957 -1.54318,-1.3281 -0.90188,-1.33624 -0.7543,-2.63663 0.43426,-3.82642 0.72752,-0.72826 1.10704,-0.81435 4.23225,-0.96 l 3.43307,-0.16 0.16,-11.53469 c 0.18118,-13.06173 0.12799,-12.79171 2.74848,-13.95088 1.30198,-0.57592 2.049,-0.61809 9.39035,-0.53006 8.77483,0.10521 8.76074,0.1021 10.4014,2.29838 0.63341,0.84792 0.66343,1.34261 0.7513,12.38023 l 0.0915,11.49702 h 3.8285 H 160 l 0.001,-20.08 c 0.001,-19.47228 0.0204,-20.11156 0.63707,-21.12292 0.34974,-0.57361 1.1052,-1.32908 1.67881,-1.67881 0.9696,-0.59117 1.62524,-0.63596 9.32515,-0.63707 7.79274,-0.001 8.34498,0.0376 9.34387,0.65493 0.5839,0.36087 1.3569,1.13387 1.71777,1.71777 0.64323,1.04076 0.65613,1.45592 0.65613,21.10387 V 186.88 h 3.84 3.84 v -15.60499 c 0,-20.84103 -1.04,-19.06969 11.27908,-19.21048 9.02345,-0.10313 9.4495,-0.042 11.00333,1.57952 l 0.91759,0.95755 0.0886,16.1392 0.0886,16.1392 h 3.83144 3.83144 v -24.17028 c 0,-25.97488 -0.0337,-25.42089 1.63876,-26.90539 0.41869,-0.37162 1.25073,-0.83962 1.849,-1.04 1.49632,-0.50118 15.05369,-0.49145 16.73407,0.012 1.47656,0.44239 2.66213,1.73024 3.12409,3.39361 0.21361,0.76911 0.33115,9.58418 0.3323,24.92093 l 0.002,23.73087 3.35346,0.10913 c 3.07625,0.10011 3.41949,0.17526 4.15225,0.90913 1.12849,1.1302 1.30972,2.47817 0.50657,3.76798 -0.35892,0.57638 -1.02188,1.18838 -1.47325,1.36 -0.94359,0.35875 -128.76823,0.38484 -130.05543,0.0265 z M 145.92,176.96 v -9.92 h -5.44 -5.44 v 9.92 9.92 h 5.44 5.44 z m 31.28258,-8.72 -0.0826,-18.64 h -5.44 -5.44 l -0.0826,18.64 -0.0826,18.64 h 5.60515 5.60516 z m 31.11742,4.23244 v -14.40755 l -5.52,0.0876 -5.52,0.0876 -0.0835,13.92 c -0.0459,7.656 -0.0144,14.1 0.07,14.32 0.11446,0.29834 1.53864,0.4 5.6035,0.4 h 5.45 z M 239.36,163.84 V 140.8 h -5.44 -5.44 v 23.04 23.04 h 5.44 5.44 z m -209.25533,6.02317 c -2.195471,-1.48961 -1.923123,-4.25001 0.520033,-5.27083 1.066802,-0.44574 1.279932,-0.44376 2.254432,0.0209 1.493801,0.71235 2.175055,2.35054 1.574729,3.78671 -0.861682,2.06142 -2.603707,2.64748 -4.349194,1.46317 z m 13.735331,0.47084 c -2.517793,-0.9204 -2.84854,-4.14221 -0.567976,-5.53267 1.022183,-0.62322 1.625144,-0.63898 24.498254,-0.64014 25.042574,-0.001 25.136384,0.004 25.963965,1.55067 0.437354,0.81721 0.445557,2.46373 0.01627,3.26586 -0.860177,1.60725 -0.47653,1.58411 -25.814623,1.55701 -12.98874,-0.0139 -23.831891,-0.10423 -24.09589,-0.20073 z M 139.04,149.07109 c -1.06471,-0.63988 -1.41915,-1.32423 -1.42982,-2.76069 l -0.0102,-1.3696 16.14281,-16.1504 c 18.95426,-18.96318 16.6241,-17.46951 22.0227,-14.11688 1.80097,1.11843 4.78649,2.96887 6.63449,4.11208 1.848,1.1432 6.96,4.30706 11.36,7.03078 4.4,2.72373 8.16256,5.04701 8.36125,5.16286 0.39212,0.22863 1.07557,-0.32336 13.39582,-10.81924 16.57108,-14.11726 17.12727,-14.56 18.29081,-14.56 1.61337,0 3.13122,1.48777 3.0876,3.02641 -0.0473,1.66885 0.67184,0.97269 -12.57541,12.17359 -2.706,2.288 -8.09702,6.8777 -11.98004,10.19932 -3.88301,3.32163 -7.49203,6.31522 -8.02003,6.65242 -1.69835,1.08464 -0.5514,1.66651 -18.08,-9.17241 -4.488,-2.77518 -9.312,-5.75314 -10.72,-6.61767 -1.408,-0.86454 -2.81209,-1.74441 -3.12021,-1.95527 -0.49212,-0.33679 -2.36197,1.41806 -15.38425,14.43809 -13.80201,13.79961 -14.91062,14.83146 -16.07979,14.96635 -0.69066,0.0797 -1.54375,-0.0282 -1.89575,-0.23974 z M 77.760001,129.25001 C 56.68079,127.76992 38.028416,113.26192 31.355221,93.155929 28.212566,83.687271 27.723472,74.128903 29.896085,64.64 33.491697,48.936137 43.679525,35.980627 58.05301,28.833808 c 17.949628,-8.924957 38.496001,-7.238128 54.81246,4.500028 4.89348,3.520403 10.49135,9.418692 13.61663,14.347393 3.21715,5.073587 5.91959,11.743232 7.33894,18.112518 0.61315,2.75149 0.70675,4.130375 0.71457,10.526253 0.009,6.967584 -0.0391,7.564739 -0.89286,11.2 -3.76044,16.01152 -13.84376,29.02884 -27.98886,36.13294 -3.80112,1.90903 -5.58846,2.61924 -9.353986,3.71683 -5.615059,1.6367 -12.3217,2.31686 -18.539903,1.88024 z m 12.800001,-6.84908 c 8.056126,-1.58547 15.980708,-5.50313 22.141658,-10.94614 7.87372,-6.95618 13.237,-16.430364 15.17969,-26.81479 0.88713,-4.742008 0.81634,-12.546676 -0.15818,-17.44 C 123.8629,47.816486 108.20708,32.877147 88.640002,29.905463 81.864556,28.876465 73.29646,29.596068 67.067845,31.71723 59.773247,34.201414 54.080025,37.743348 48.646305,43.177853 41.768401,50.05675 37.763203,57.450805 35.634033,67.2 c -0.472974,2.165689 -0.592406,4.056867 -0.586049,9.28 0.0073,5.972514 0.08412,6.880696 0.858179,10.140968 3.32316,13.996922 12.258968,25.303252 25.053838,31.700212 4.779773,2.38971 9.107012,3.68115 15.68,4.67963 2.075885,0.31534 11.286443,-0.0816 13.920001,-0.59988 z m -14.560001,-8.19565 c -3.410107,-0.49141 -7.595655,-1.84569 -11.233849,-3.63484 -13.146378,-6.46499 -21.278593,-19.483171 -21.294195,-34.088094 -0.0024,-2.20129 0.151919,-4.959698 0.342824,-6.129795 2.63838,-16.17115 15.331213,-29.026082 31.416847,-31.818068 4.528544,-0.786021 11.523137,-0.495286 15.968374,0.663735 16.355098,4.264317 27.902988,18.48849 28.708448,35.361782 0.61852,12.957243 -5.25238,25.004584 -16.06845,32.97315 -4.304558,3.17131 -11.104002,5.90714 -16.639998,6.69527 -2.655334,0.37803 -8.499879,0.36595 -11.200001,-0.0231 z m 10.667135,-6.21231 C 99.494095,105.9127 109.60847,96.613021 112.82202,83.944828 113.24991,82.258037 113.6,80.5364 113.6,80.118968 V 79.36 H 98.321741 83.04348 L 72.241741,90.158235 c -5.940957,5.93903 -10.80174,10.887865 -10.80174,10.997425 0,0.10955 1.009127,0.87623 2.242503,1.70374 6.877103,4.61404 15.000655,6.42841 22.984632,5.13357 z M 67.819508,85.719745 78.720001,74.79949 V 59.639745 44.48 h -1.059075 c -3.847598,0 -11.782656,3.367292 -16.060925,6.815556 C 49.829278,60.7827 46.241721,77.190047 52.99572,90.646407 53.827827,92.304258 56.582782,96.64 56.804083,96.64 c 0.06321,0 5.020154,-4.914115 11.015425,-10.920255 z M 113.45771,71.76 C 112.00934,61.518254 105.35212,52.248463 96.075871,47.556816 93.592592,46.300847 89.082375,44.872515 86.800001,44.619258 l -2,-0.221924 V 58.838667 73.28 h 14.436335 14.436334 z m 76.27768,6.664615 C 187.73152,76.420749 189.01637,73.28 191.84,73.28 c 1.19784,0 1.9957,0.508766 2.58501,1.64836 1.60325,3.10035 -2.22869,5.957183 -4.68962,3.496255 z m 13.16917,0.106939 c -0.82287,-0.692392 -0.98456,-1.058136 -0.98456,-2.22705 0,-1.113338 0.17883,-1.564417 0.87673,-2.211554 L 203.67346,73.28 h 24.25453 c 26.65363,0 25.31585,-0.09868 26.1559,1.929388 0.49755,1.201181 0.1909,2.400646 -0.86355,3.377886 L 252.38655,79.36 H 228.13783 203.88911 Z M 190.24,56.253499 c -0.99413,-0.570133 -1.41874,-1.282394 -1.42982,-2.398442 -0.0225,-2.26779 1.4664,-3.569534 3.62056,-3.165412 1.5533,0.291402 2.28926,1.246738 2.28926,2.971658 0,1.174559 -0.16249,1.573883 -0.89784,2.206404 -0.97423,0.837996 -2.506,1.002965 -3.58216,0.385792 z m 12.61305,-0.504362 C 202.05707,55.037929 201.856,54.604526 201.856,53.6 c 0,-1.004526 0.20107,-1.437929 0.99705,-2.149137 L 203.8501,50.56 h 24.01084 c 26.32632,0 25.39585,-0.0674 26.21024,1.898698 0.50959,1.230251 0.21163,2.42391 -0.85084,3.408576 L 252.38655,56.64 H 228.11833 203.8501 Z M 189.64364,33.076364 c -1.2124,-1.212402 -1.17351,-3.035724 0.0917,-4.300979 2.12383,-2.123831 5.56186,-0.219816 5.00103,2.769623 -0.42976,2.290855 -3.43087,3.193263 -5.09278,1.531356 z m 13.12,0 c -1.2124,-1.212402 -1.17351,-3.035724 0.0917,-4.300979 L 203.79077,27.84 h 24.00956 c 17.00949,0 24.23841,0.104272 24.7945,0.357642 0.43171,0.196702 1.03555,0.822999 1.34185,1.391769 0.67201,1.247842 0.45013,2.452873 -0.65514,3.558148 L 252.5091,33.92 h -24.45091 -24.45091 z"
         id="path2" />
    </g>
  </g>
</svg>
