<?xml version="1.0" encoding="UTF-8" standalone="no"?>
<!-- Created with Inkscape (http://www.inkscape.org/) -->

<svg
   version="1.1"
   id="svg1"
   width="77.17691"
   height="69.64595"
   viewBox="0 0 771.7691 696.4595"
   sodipodi:docname="login.svg"
   inkscape:version="1.4.1-rc (06eac75fbf, 2025-03-29)"
   xmlns:inkscape="http://www.inkscape.org/namespaces/inkscape"
   xmlns:sodipodi="http://sodipodi.sourceforge.net/DTD/sodipodi-0.dtd"
   xmlns="http://www.w3.org/2000/svg"
   xmlns:svg="http://www.w3.org/2000/svg">
  <defs
     id="defs1" />
  <sodipodi:namedview
     id="namedview1"
     pagecolor="#ffffff"
     bordercolor="#000000"
     borderopacity="0.25"
     inkscape:showpageshadow="2"
     inkscape:pageopacity="0.0"
     inkscape:pagecheckerboard="0"
     inkscape:deskcolor="#d1d1d1"
     inkscape:zoom="6.296875"
     inkscape:cx="39.622829"
     inkscape:cy="41.766749"
     inkscape:window-width="1920"
     inkscape:window-height="1011"
     inkscape:window-x="0"
     inkscape:window-y="32"
     inkscape:window-maximized="1"
     inkscape:current-layer="g1" />
  <g
     inkscape:groupmode="layer"
     inkscape:label="Image"
     id="g1"
     transform="translate(-42.590673,-78)">
    <path
       style="fill:#615a74;fill-opacity:1;stroke-width:0.816798"
       d="m 562.365,773.95539 c -3.87878,-0.93312 -7.86224,-3.69904 -9.68576,-6.7252 -1.60616,-2.66551 -1.63359,-4.15923 -1.63359,-88.94686 v -86.23582 l 2.29351,-3.00695 c 3.46227,-4.53927 7.51767,-6.25907 14.75927,-6.25907 h 6.09109 l 0.35388,-35.32654 c 0.32747,-32.69021 0.48855,-35.93261 2.1584,-43.44792 4.40196,-19.81124 14.21276,-38.0318 28.08771,-52.1643 16.50624,-16.81263 35.84302,-26.84139 59.56994,-30.89515 12.32658,-2.106 30.11561,-1.7824 41.89411,0.76209 10.1744,2.19797 26.62871,9.14208 35.48072,14.97372 17.14692,11.29624 33.07543,30.46422 40.44374,48.66898 7.24718,17.90546 8.56169,28.16839 8.58205,67.00337 l 0.0159,30.42575 h 5.95292 c 10.38435,0 16.26934,4.52497 17.31589,13.31419 0.27812,2.33583 0.39415,41.18669 0.25781,86.33523 l -0.24786,82.08825 -1.87897,3.02183 c -1.03343,1.66202 -3.23879,3.86738 -4.90079,4.90079 l -3.02182,1.87896 -119.66099,0.12603 c -65.81354,0.0694 -120.81578,-0.15184 -122.2272,-0.49138 z M 785.05842,678.34691 V 610.55264 H 682.1418 579.22519 v 67.79427 67.79428 H 682.1418 785.05842 Z m -23.68716,-127.8634 c 0,-41.23702 -0.87021,-46.28613 -10.89035,-63.18762 -14.02056,-23.64922 -37.11816,-38.14895 -63.43831,-39.824 -33.13352,-2.10864 -62.97725,16.27143 -77.82758,47.93225 -6.27386,13.37581 -7.10384,20.21197 -7.11277,58.5852 l -0.007,28.79215 h 79.63785 79.63786 z m -707.755918,221.877 c -6.814231,-3.16166 -11.028387,-9.81754 -11.024667,-17.4125 0.0047,-9.57538 6.111024,-42.68429 11.491414,-62.30712 18.054421,-65.84633 50.108861,-121.75978 96.262531,-167.91345 22.12275,-22.12275 41.38845,-37.20679 68.26403,-53.44721 5.83611,-3.52666 32.42169,-17.44888 35.53074,-18.60658 0.88916,-0.3311 -0.007,-1.52945 -3.26721,-4.36924 -42.11346,-36.68207 -66.54925,-81.08415 -74.09106,-134.63021 -1.79381,-12.7359 -1.76163,-40.25621 0.0627,-53.52753 C 187.35782,183.65692 237.5881,119.6209 308.72398,92.019293 333.84549,82.271823 357.0408,78 384.84653,78 c 48.56531,0 93.11696,15.770444 131.27403,46.46853 10.09114,8.1185 27.45347,25.99596 35.04441,36.0841 21.72043,28.86593 35.61671,62.31822 40.86273,98.36824 1.92242,13.21075 1.92543,43.60788 0.006,56.19998 -5.08561,33.35552 -15.65296,60.99988 -33.62555,87.96496 -10.58461,15.88057 -26.14713,33.24818 -40.73341,45.45807 l -3.96662,3.32038 16.21859,8.37537 c 16.34423,8.44034 27.24521,14.92233 27.24521,16.20075 0,0.38084 -0.95948,3.05307 -2.13218,5.93826 -2.27932,5.60781 -5.55047,19.38629 -6.43267,27.09518 -0.29561,2.58312 -0.70705,4.69659 -0.91433,4.69659 -0.20726,0 -4.13209,-2.5096 -8.72181,-5.5769 -17.87945,-11.94877 -40.14251,-22.94137 -61.51552,-30.37388 l -4.16264,-1.44757 -6.28175,2.7703 c -50.15971,22.12095 -109.40754,22.81808 -159.91219,1.88161 -5.54248,-2.29761 -10.66075,-4.16703 -11.37392,-4.15424 -2.77635,0.0497 -22.24027,7.98144 -35.45925,14.44993 -32.21827,15.76549 -56.07059,33.0057 -82.94087,59.94882 -16.73445,16.77981 -28.37414,31.00649 -41.15981,50.30777 -13.6994,20.68067 -21.12311,34.42349 -30.76042,56.9439 -12.063774,28.19053 -23.381425,70.54619 -24.942822,93.34703 -0.24611,3.59391 -0.826245,7.777 -1.289189,9.29574 -1.133013,3.71699 -6.033155,9.00169 -10.037741,10.82552 -4.273722,1.94643 -11.291207,1.93377 -15.519173,-0.0278 z M 399.18346,458.57667 c 34.2732,-3.3351 66.87363,-16.62905 93.46109,-38.11197 8.06881,-6.51968 22.06323,-20.99478 28.4729,-29.45091 18.39584,-24.2692 30.59413,-54.4637 34.38182,-85.10558 2.24076,-18.12734 0.4084,-43.95836 -4.42612,-62.39563 C 538.24397,194.58626 503.15444,152.60775 457.04218,131.0209 424.81937,115.93621 386.52543,111.211 352.06592,118.06756 298.31303,128.763 253.8728,162.80321 229.97298,211.58798 c -19.79554,40.40701 -22.96232,86.26802 -8.91499,129.10594 14.69651,44.8176 46.91354,81.3542 89.94973,102.00995 26.69728,12.81368 59.30029,18.68266 88.17574,15.8728 z"
       id="path1" />
  </g>
</svg>
