<?xml version="1.0" encoding="UTF-8" standalone="no"?>
<!-- Created with Inkscape (http://www.inkscape.org/) -->

<svg
   version="1.1"
   id="svg1"
   width="70.599998"
   height="70.599998"
   viewBox="0 0 705.99998 705.99998"
   sodipodi:docname="settings.svg"
   inkscape:version="1.4.1-rc (06eac75fbf, 2025-03-29)"
   xmlns:inkscape="http://www.inkscape.org/namespaces/inkscape"
   xmlns:sodipodi="http://sodipodi.sourceforge.net/DTD/sodipodi-0.dtd"
   xmlns="http://www.w3.org/2000/svg"
   xmlns:svg="http://www.w3.org/2000/svg">
  <defs
     id="defs1" />
  <sodipodi:namedview
     id="namedview1"
     pagecolor="#ffffff"
     bordercolor="#000000"
     borderopacity="0.25"
     inkscape:showpageshadow="2"
     inkscape:pageopacity="0.0"
     inkscape:pagecheckerboard="0"
     inkscape:deskcolor="#d1d1d1"
     showgrid="false"
     inkscape:zoom="8.779956"
     inkscape:cx="35.022955"
     inkscape:cy="44.191565"
     inkscape:window-width="1920"
     inkscape:window-height="1011"
     inkscape:window-x="0"
     inkscape:window-y="0"
     inkscape:window-maximized="1"
     inkscape:current-layer="g1" />
  <g
     inkscape:groupmode="layer"
     inkscape:label="Image"
     id="g1"
     transform="translate(-14.463303,-14.488513)">
    <path
       style="fill:#2c2c3e;fill-opacity:1"
       d="m 292.64001,717.61974 c -2.992,-1.28015 -7.6,-3.21962 -10.24,-4.30993 -2.64,-1.09031 -5.088,-2.11226 -5.44,-2.271 -0.352,-0.15874 -4.024,-1.68209 -8.16,-3.38522 -4.136,-1.70313 -10.256,-4.23651 -13.6,-5.62974 -3.344,-1.39323 -7.16,-2.98143 -8.48,-3.52933 -1.32,-0.5479 -3.336,-1.39226 -4.48,-1.87636 -1.144,-0.48409 -4.024,-1.6717 -6.4,-2.63913 -2.376,-0.96743 -6.264,-2.57061 -8.64,-3.56263 -2.376,-0.99202 -5.328,-2.22013 -6.56,-2.72915 -1.232,-0.50902 -3.824,-1.5906 -5.76,-2.40352 -4.17426,-1.75276 -6.29789,-2.63467 -13.12,-5.44854 -2.816,-1.1615 -6.272,-2.58716 -7.68,-3.16814 -1.408,-0.58098 -5.008,-2.07607 -8,-3.32244 -11.79092,-4.91168 -17.64564,-7.34035 -18.64,-7.7323 -0.572,-0.22546 -1.04,-0.5308 -1.04,-0.67853 0,-0.24834 1.23123,-5.79079 2.5533,-11.49376 0.306,-1.32 1.09658,-4.776 1.75683,-7.68 0.66025,-2.904 1.46847,-6.432 1.79603,-7.84 0.77457,-3.3294 2.70213,-11.73689 3.48485,-15.2 0.33813,-1.496 1.21247,-5.312 1.94298,-8.48 0.73051,-3.168 1.81855,-7.92 2.41787,-10.56 0.59932,-2.64 1.37316,-6.024 1.71966,-7.52 0.88678,-3.82875 2.79001,-12.13308 3.52027,-15.36 1.27143,-5.61828 2.01665,-8.87646 2.59828,-11.36 0.32974,-1.408 0.82547,-3.5898 1.10161,-4.84844 l 0.50208,-2.28844 -8.67156,-8.67156 c -4.76936,-4.76936 -8.84758,-8.67156 -9.06272,-8.67156 -0.21514,0 -1.97253,0.36529 -3.90532,0.81175 -1.93279,0.44647 -4.73816,1.08712 -6.23416,1.42367 -4.24131,0.95416 -8.57574,1.94283 -11.2,2.55468 -1.32001,0.30776 -4.77601,1.09978 -7.68001,1.76003 -2.904,0.66026 -6.432,1.46847 -7.84,1.79604 -3.99465,0.92933 -11.59553,2.67125 -18.08,4.14345 -3.256,0.73922 -7,1.59514 -8.32,1.90205 -1.32,0.3069 -4.776,1.09821 -7.68,1.75846 -2.904,0.66026 -6.431997,1.46732 -7.839997,1.79348 -1.408,0.32617 -4.504,1.03075 -6.88,1.56574 -2.376,0.535 -5.184,1.18336 -6.24,1.44081 -1.590359,0.38772 -7.248562,1.66891 -9.965889,2.25657 -0.728549,0.15757 -0.613797,0.38948 -4.595193,-9.28673 -1.230933,-2.99161 -4.411692,-10.62824 -7.530561,-18.08 -0.994453,-2.376 -2.44706,-5.904 -3.228015,-7.84 -0.780955,-1.936 -1.55105,-3.808 -1.711322,-4.16 -0.160273,-0.352 -0.708988,-1.648 -1.219368,-2.88 -0.51038,-1.232 -1.376248,-3.32 -1.92415,-4.64 -3.934453,-9.47884 -6.305028,-15.1955 -7.099289,-17.12 -0.508459,-1.232 -1.589588,-3.824 -2.40251,-5.76 -1.798743,-4.28377 -2.716798,-6.49536 -5.446245,-13.12 -1.160232,-2.816 -2.527705,-6.128 -3.038828,-7.36 -2.781553,-6.70459 -6.223133,-14.96751 -7.996981,-19.2 -1.106428,-2.64 -2.51349,-6.024 -3.126803,-7.52001 -1.717252,-4.18874 -2.4618,-5.99499 -3.759321,-9.12 -0.657686,-1.584 -1.52349,-3.69896 -1.924009,-4.69991 l -0.728216,-1.81991 11.248349,-7.00411 c 6.186592,-3.85227 12.472349,-7.76121 13.968349,-8.68654 1.496,-0.92534 4.664,-2.89531 7.040001,-4.37773 2.376,-1.48241 7.128,-4.43475 10.56,-6.56075 3.432,-2.126 8.04,-4.99757 10.24,-6.38127 2.2,-1.38371 4.648,-2.9087 5.44,-3.38888 1.613459,-0.97822 14.030332,-8.68958 24.000001,-14.90493 3.607997,-2.24932 6.680347,-4.13121 6.827447,-4.18197 0.14709,-0.0508 0.27223,-5.7748 0.2781,-12.72009 l 0.0107,-12.62781 -1.5581,-1.01204 c -0.85696,-0.55663 -3.68211,-2.322 -6.278107,-3.92305 -11.78725,-7.26965 -14.23185,-8.785 -15.28,-9.47173 -0.616,-0.40359 -2.344,-1.48326 -3.84,-2.39928 -1.496,-0.91601 -3.224001,-1.98881 -3.840001,-2.38399 -0.616,-0.39519 -4.144,-2.59332 -7.84,-4.88475 -7.075848,-4.38686 -16.547478,-10.26914 -28.400001,-17.63762 -3.916,-2.4345 -7.768,-4.81814 -8.56,-5.29698 -0.792,-0.47883 -3.24,-2.01041 -5.44,-3.4035 -2.2,-1.3931 -4.886291,-3.04618 -5.969536,-3.67353 -1.083245,-0.62735 -2.110264,-1.31591 -2.282265,-1.53013 -0.215426,-0.26831 0.227294,-1.68385 1.422887,-4.5495 1.979086,-4.74356 2.597867,-6.23019 6.193494,-14.88 1.426644,-3.432 3.614369,-8.688 4.861612,-11.68 1.247243,-2.992 2.830148,-6.808 3.517567,-8.48 0.687418,-1.672 1.580614,-3.832 1.98488,-4.8 0.404266,-0.968 1.182108,-2.84 1.728537,-4.16 0.546429,-1.32 2.1587,-5.208 3.582824,-8.64 1.424124,-3.432 3.006995,-7.248 3.517491,-8.48 0.510496,-1.232 1.593293,-3.824 2.406215,-5.76 0.812921,-1.936 1.89312,-4.528 2.40044,-5.76 2.09194,-5.08016 5.038938,-12.20015 7.417183,-17.92 1.390394,-3.344 2.946796,-7.088 3.458672,-8.32 0.511876,-1.232 2.068278,-4.976 3.458672,-8.32 1.390393,-3.344 3.420517,-8.24 4.511385,-10.88 3.622114,-8.76585 3.978011,-9.59794 4.229497,-9.88863 0.247661,-0.28627 2.431197,0.0957 7.960447,1.39244 2.985225,0.70013 11.085577,2.56066 15.36,3.52798 5.297747,1.19889 8.829337,2.00558 11.199997,2.55831 1.32,0.30776 4.776,1.09978 7.68,1.76003 2.904,0.66025 6.432,1.46732 7.84,1.79348 1.408,0.32616 4.504,1.02958 6.88,1.56316 2.376,0.53357 4.896,1.11275 5.6,1.28705 0.704,0.17431 3.224,0.75309 5.6,1.28618 2.376,0.53308 4.896,1.10978 5.6,1.28155 0.704,0.17177 4.16,0.96781 7.68001,1.76898 9.34534,2.12705 10.03849,2.28629 16,3.67578 l 5.44,1.26793 8.73744,-8.73529 8.73744,-8.73528 -1.18102,-5.26184 c -0.64956,-2.89401 -1.44553,-6.41383 -1.76881,-7.82183 -2.18332,-9.50907 -2.94298,-12.83134 -4.13409,-18.08001 -0.7389,-3.256 -1.61103,-7.072 -1.93808,-8.48 -0.32704,-1.408 -1.10639,-4.792 -1.73188,-7.52 -0.62549,-2.728 -1.41794,-6.184 -1.761,-7.68 -0.34307,-1.496 -1.13552,-4.952 -1.76101,-7.68 -0.62549,-2.728 -1.42331,-6.184 -1.77294,-7.68 -0.34962,-1.496 -0.91967,-4.015997 -1.26676,-5.599997 -0.3471,-1.584 -0.90061,-4.032 -1.23003,-5.44 -0.32941,-1.408 -1.12149,-4.864 -1.76016,-7.68 -0.63868,-2.816 -1.52872,-6.704 -1.97789,-8.640001 -0.44916,-1.936 -0.90095,-3.916124 -1.00399,-4.400275 -0.172,-0.808227 -0.0597,-0.934328 1.37272,-1.540678 0.85803,-0.363222 1.84806,-0.788092 2.20006,-0.944156 0.352,-0.156064 2.944,-1.232828 5.76,-2.392809 6.58977,-2.714493 8.81509,-3.638165 13.12,-5.445787 3.78622,-1.589825 5.23104,-2.188717 13.12,-5.438377 2.816,-1.159981 5.408,-2.239044 5.76,-2.397918 0.352,-0.158875 2.944,-1.237938 5.76,-2.397918 2.816,-1.159981 6.128,-2.528391 7.36,-3.040911 1.232,-0.51252 4.976,-2.06945 8.32,-3.459843 3.344,-1.390394 8.24,-3.434346 10.88,-4.542116 2.64,-1.10777 6.312,-2.619416 8.16,-3.359213 1.848,-0.739797 5.52,-2.251442 8.16,-3.359212 2.64,-1.107771 7.536,-3.151723 10.88,-4.542116 3.344,-1.390394 7.088,-2.947323 8.32,-3.459844 1.232,-0.51252 4.544,-1.88093 7.36,-3.04091 2.816,-1.159981 5.408,-2.240482 5.76,-2.401114 1.18122,-0.539038 9.27434,-3.886517 9.77324,-4.042408 0.52602,-0.164367 0.84867,0.284002 4.63839,6.445604 1.19074,1.936 3.46204,5.608 5.04733,8.16 6.03641,9.717419 11.99149,19.293514 16.21835,26.080001 5.12014,8.220713 11.82967,19.0106 16.99032,27.322883 2.00881,3.235585 5.82038,9.355585 8.47016,13.6 l 4.81779,7.717115 12.62221,0.0323 12.62221,0.0323 4.48,-7.217343 c 2.464,-3.969537 6.18561,-9.960071 8.27025,-13.312297 2.08463,-3.352227 4.94677,-7.966957 6.36031,-10.254958 1.41353,-2.288 2.89788,-4.664 3.29854,-5.28 0.40066,-0.616 2.77257,-4.432 5.2709,-8.48 2.49834,-4.048 4.87081,-7.864 5.27217,-8.48 0.40136,-0.616 2.05837,-3.28 3.68225,-5.920001 1.62388,-2.64 3.28239,-5.304 3.68558,-5.92 0.4032,-0.616 2.06586,-3.28 3.6948,-5.92 6.50615,-10.544393 11.309,-18.254388 11.53663,-18.519699 0.18857,-0.219785 6.70268,2.273254 10.36857,3.968197 0.352,0.162748 1.864,0.790267 3.36,1.394485 1.496,0.604218 4.66401,1.915179 7.04001,2.913246 2.376,0.998067 4.536,1.896712 4.8,1.99699 0.264,0.100278 3.216,1.319422 6.56,2.70921 8.28477,3.443204 10.53113,4.3753 12.96,5.377571 3.76867,1.555139 16.24078,6.738206 24.8,10.306193 2.992,1.247243 6.736,2.800348 8.32,3.451345 3.33797,1.371848 9.36385,3.87297 16.64,6.906653 2.816,1.17409 5.912,2.458028 6.88,2.853197 3.51034,1.433036 8.89177,3.66132 13.12,5.432588 2.376,0.995342 6.408,2.672117 8.96,3.726165 2.552,1.054049 4.928,2.043814 5.28,2.199478 0.352,0.155664 1.34046,0.579517 2.19658,0.941894 1.77077,0.749526 1.72451,0.317631 0.5679,5.302488 -0.36753,1.584001 -1.18005,5.112001 -1.8056,7.840001 -0.62556,2.728 -1.42087,6.184 -1.76736,7.68 -0.69488,3.000182 -2.10832,9.196734 -4.16055,18.239997 -0.7389,3.256 -1.61104,7.072 -1.93809,8.48 -0.98459,4.2389 -2.71804,11.80565 -4.14191,18.08 -0.73891,3.256 -1.61104,7.072 -1.93809,8.48 -0.58432,2.51566 -2.26745,9.8455 -3.49033,15.20001 -0.34166,1.496 -1.05731,4.664 -1.59033,7.04 -0.53302,2.376 -1.13297,4.93352 -1.33321,5.68339 l -0.36409,1.36338 8.77565,8.77319 8.77565,8.77318 4.14689,-0.94818 c 2.28079,-0.5215 5.29889,-1.21507 6.70689,-1.54127 1.408,-0.3262 4.936,-1.13331 7.84,-1.79356 2.904,-0.66025 6.36,-1.45156 7.68,-1.75847 1.32,-0.3069 5.064,-1.16282 8.32,-1.90204 6.48447,-1.4722 14.08535,-3.21412 18.08,-4.14346 1.408,-0.32756 4.936,-1.13578 7.84,-1.79603 2.904,-0.66025 6.432,-1.46999 7.84,-1.7994 1.408,-0.32942 3.856,-0.88717 5.44,-1.23944 1.584,-0.35228 4.032,-0.90657 5.44,-1.23176 1.408,-0.3252 4.936,-1.13498 7.84,-1.79953 2.904,-0.66455 6.432,-1.47432 7.84,-1.79949 5.58176,-1.28906 7.25341,-1.60849 7.64036,-1.46001 0.22202,0.0852 0.85386,1.28544 1.40408,2.6672 0.55022,1.38176 1.81346,4.4563 2.8072,6.8323 2.57437,6.15523 3.96275,9.49917 4.78304,11.52 1.14338,2.81679 4.00497,9.70102 4.32299,10.4 0.16016,0.352 1.24027,2.944 2.40025,5.76 1.15998,2.816 2.52839,6.128 3.04091,7.36 0.51252,1.232 2.06945,4.976 3.45984,8.32 1.3904,3.344 3.43435,8.24 4.54212,10.88 1.10777,2.64 2.61942,6.312 3.35921,8.16 0.7398,1.848 2.25145,5.52 3.35922,8.16 1.10777,2.64 3.15172,7.536 4.54211,10.88 1.3904,3.344 2.94732,7.088 3.45984,8.32 0.51253,1.232 1.88093,4.544 3.04092,7.36 1.15998,2.816 2.23871,5.408 2.39719,5.76 0.15847,0.352 1.15217,2.728 2.20822,5.28 1.05605,2.552 2.84942,6.872 3.98526,9.6 1.91392,4.59673 2.02643,4.99732 1.53621,5.46957 -0.29093,0.28026 -2.61697,1.77978 -5.16897,3.33227 -2.552,1.55249 -5.36,3.28694 -6.24,3.85433 -0.88,0.5674 -4.336,2.72506 -7.68,4.79481 -3.344,2.06975 -9.032,5.5969 -12.64,7.83811 -14.64327,9.09609 -29.05299,18.03955 -30.56,18.9672 -0.88,0.54169 -2.32,1.445 -3.2,2.00735 -0.88,0.56235 -4.912,3.07351 -8.96,5.58034 -4.048,2.50683 -8.97046,5.56601 -10.93879,6.79817 l -3.5788,2.2403 0.007,12.67877 0.007,12.67878 2.61198,1.57371 c 1.4366,0.86554 6.35599,3.90288 10.93199,6.74966 4.576,2.84677 10.48,6.50966 13.12,8.13975 2.64,1.63009 5.304,3.29461 5.92,3.69892 0.616,0.40432 3.856,2.42645 7.2,4.49362 3.344,2.06718 9.032,5.59494 12.64,7.83947 5.54005,3.44646 14.5527,9.03822 21.76,13.50065 0.968,0.59934 3.488,2.17411 5.6,3.49948 2.112,1.32538 5.16259,3.23589 6.77909,4.24559 2.23428,1.39558 2.89428,1.96331 2.75223,2.36748 -0.10277,0.29242 -1.29636,3.19567 -2.65242,6.45167 -1.35605,3.256 -3.35789,8.08 -4.44852,10.72001 -1.09063,2.64 -2.11613,5.088 -2.27887,5.44 -0.16275,0.352 -0.78316,1.864 -1.37869,3.36 -0.59553,1.496 -1.98804,4.88 -3.09447,7.52 -1.10643,2.64 -3.14928,7.536 -4.53967,10.88 -1.3904,3.344 -2.94733,7.088 -3.45985,8.32 -0.51252,1.232 -1.88093,4.544 -3.04091,7.36 -1.15998,2.816 -2.23904,5.408 -2.39792,5.76 -0.15887,0.352 -1.23793,2.944 -2.39792,5.76 -2.71449,6.58977 -3.63816,8.81509 -5.44578,13.12 -1.58983,3.78622 -2.18872,5.23104 -5.43838,13.12 -1.15998,2.816 -2.24173,5.408 -2.40388,5.76 -0.25566,0.55499 -1.46364,3.47151 -4.3075,10.4 -2.16049,5.26357 -3.81544,9.24644 -5.41667,13.03596 -0.98443,2.32978 -1.78987,4.36978 -1.78987,4.53334 0,0.74195 -0.39768,0.6867 -8.72,-1.21142 -7.00875,-1.59853 -11.58654,-2.64662 -14.8,-3.38849 -1.936,-0.44695 -5.392,-1.23895 -7.68,-1.76 -2.288,-0.52105 -5.744,-1.31578 -7.68,-1.76606 -1.936,-0.45029 -4.456,-1.02616 -5.6,-1.27971 -1.144,-0.25356 -3.664,-0.82787 -5.6,-1.27625 -1.936,-0.44839 -5.824,-1.3378 -8.64,-1.97647 -2.816,-0.63868 -6.2,-1.41276 -7.52,-1.72018 -1.32,-0.30742 -4.776,-1.09942 -7.68,-1.76 -2.904,-0.66058 -6.36,-1.45286 -7.68,-1.76062 -2.62427,-0.61185 -6.9587,-1.60052 -11.2,-2.55468 -1.496,-0.33655 -4.30137,-0.9772 -6.23416,-1.42367 -1.93279,-0.44646 -3.68875,-0.81175 -3.90214,-0.81175 -0.21338,0 -4.28812,3.90522 -9.05498,8.67826 l -8.667,8.67827 0.65814,2.92173 c 0.36198,1.60696 0.94407,4.14574 1.29354,5.64174 0.34946,1.496 0.9073,3.944 1.23963,5.44 0.33233,1.496 0.90269,4.016 1.26748,5.6 0.36478,1.584 1.17506,5.112 1.80061,7.84 0.62555,2.728 1.41899,6.184 1.7632,7.68 2.39061,10.39018 5.32617,23.20411 6.08466,26.56 0.54791,2.42419 1.58129,6.94503 3.51102,15.36 0.34306,1.496 1.13557,4.952 1.76112,7.68 0.62555,2.728 1.41923,6.184 1.76373,7.68 1.82781,7.93737 2.23515,9.78081 2.23515,10.11534 0,0.20186 -0.468,0.55149 -1.04,0.77695 -0.99436,0.39195 -6.84908,2.82062 -18.64,7.7323 -2.992,1.24637 -6.592,2.74146 -8,3.32244 -7.6004,3.13612 -13.35821,5.52198 -18.08,7.4918 -2.904,1.21148 -8.088,3.36995 -11.52,4.79659 -3.432,1.42665 -7.248,3.01323 -8.48,3.52575 -1.232,0.51252 -4.544,1.88114 -7.36,3.04137 -2.816,1.16024 -6.128,2.52491 -7.36,3.03262 -1.232,0.5077 -3.824,1.58822 -5.76,2.40114 -1.936,0.81292 -4.528,1.89572 -5.76,2.40621 -1.232,0.5105 -5.048,2.09337 -8.48,3.51749 -3.432,1.42413 -7.248,3.00751 -8.48,3.51864 -1.232,0.51112 -4.544,1.87834 -7.36,3.03827 -2.81601,1.15992 -5.40801,2.2398 -5.76001,2.39973 -2.37678,1.07985 -10.00614,4.16336 -10.30118,4.16336 -0.36307,0 -1.00673,-0.99905 -10.82389,-16.8 -2.95243,-4.752 -6.98112,-11.232 -8.95265,-14.4 -3.31913,-5.33344 -7.18495,-11.54818 -16.32231,-26.24 -12.56966,-20.21057 -15.89093,-25.56064 -17.28277,-27.84 -0.85976,-1.408 -1.83425,-2.91791 -2.16553,-3.35535 l -0.60233,-0.79536 -12.46866,-0.005 -12.46867,-0.005 -1.23295,1.92083 c -0.67812,1.05645 -4.00319,6.38482 -7.38906,11.84082 -3.38586,5.456 -7.99164,12.872 -10.23507,16.48 -13.85774,22.28677 -17.99026,28.93725 -19.48669,31.36 -0.92402,1.496 -2.80814,4.52 -4.18693,6.72 -2.17091,3.46389 -7.42331,11.92292 -11.70486,18.85077 -0.81522,1.31909 -1.53447,2.12932 -1.92,2.16286 -0.33905,0.0295 -3.06445,-0.99376 -6.05645,-2.27391 z m -7.85285,-47.96945 c 1.28631,-2.07217 9.87978,-15.77456 19.09694,-30.45027 3.42667,-5.456 8.03353,-12.8 10.23747,-16.32 2.20394,-3.52 6.67866,-10.648 9.94382,-15.84 3.26517,-5.192 6.32663,-10.088 6.80325,-10.88 3.22592,-5.36054 3.80532,-6.08027 4.88927,-6.07334 0.96101,0.006 5.49587,0.37004 16.5621,1.32902 5.21392,0.45183 25.33175,0.45577 30.24,0.006 7.33263,-0.67205 17.76803,-1.43899 17.86381,-1.31289 0.10237,0.13478 9.07783,14.55981 18.5988,29.89129 2.95102,4.752 5.69603,9.144 6.10001,9.76 0.40399,0.616 3.1416,5.008 6.08359,9.76 2.94199,4.752 5.81115,9.36 6.37593,10.24 0.56477,0.88 3.87194,6.172 7.34928,11.76 3.47733,5.588 6.37133,10.16 6.43112,10.16 0.0958,0 2.27018,-0.89557 10.87747,-4.48016 1.232,-0.51307 4.544,-1.88215 7.36,-3.04238 2.816,-1.16023 6.128,-2.52823 7.36,-3.04 1.232,-0.51177 4.544,-1.87977 7.36,-3.04 2.816,-1.16023 6.128,-2.53029 7.36,-3.04458 1.232,-0.51429 5.768,-2.38709 10.08,-4.16179 19.68815,-8.10308 21.1838,-8.745 21.34319,-9.16038 0.1478,-0.38516 -0.22316,-2.29723 -1.51147,-7.79071 -1.06031,-4.5213 -2.63652,-11.29651 -4.76453,-20.48 -0.34666,-1.496 -1.14858,-4.952 -1.78204,-7.68 -0.63346,-2.728 -1.43388,-6.184 -1.77871,-7.68 -1.03922,-4.50851 -1.85213,-8.00368 -2.56771,-11.04 -0.81968,-3.47803 -1.28955,-5.48586 -2.17167,-9.28 -0.36828,-1.584 -0.95741,-4.104 -1.3092,-5.6 -0.35178,-1.496 -1.15182,-4.952 -1.77786,-7.68 -0.62605,-2.728 -1.42339,-6.184 -1.77188,-7.68 -1.25832,-5.40178 -1.99692,-8.97728 -1.87375,-9.07071 10.26271,-7.78468 30.22781,-27.4661 42.73655,-42.12929 3.79232,-4.44551 3.36993,-4.19843 6.02908,-3.52674 1.232,0.31119 3.32,0.80902 4.64,1.10628 1.32,0.29726 3.552,0.81282 4.96,1.14569 1.408,0.33287 8.824,2.05768 16.48,3.83291 7.656,1.77524 15.144,3.51484 16.64,3.86578 1.496,0.35094 3.296,0.77218 4,0.93608 0.704,0.1639 2.504,0.58549 4,0.93686 1.496,0.35138 5.6,1.2987 9.12,2.10516 3.52,0.80646 7.624,1.75559 9.12,2.10919 1.496,0.35359 3.584,0.8409 4.64,1.0829 1.056,0.242 3.144,0.72931 4.64,1.0829 1.496,0.3536 4.016,0.9476 5.6,1.32 1.584,0.3724 3.7532,0.88542 4.82045,1.14004 2.81317,0.67116 2.85442,0.65718 3.59076,-1.21705 0.92613,-2.35731 3.8724,-9.54991 4.22734,-10.32 0.42418,-0.92034 3.41553,-8.16388 4.69132,-11.36 0.59715,-1.496 1.21903,-3.008 1.38195,-3.36 0.16292,-0.352 0.88496,-2.08 1.60455,-3.84 0.71958,-1.76 1.58521,-3.848 1.92363,-4.64 0.33842,-0.792 1.20426,-2.88 1.92408,-4.64 0.71983,-1.76 1.72617,-4.208 2.23632,-5.44 0.51015,-1.232 1.87683,-4.544 3.03706,-7.36 2.49835,-6.06374 3.33502,-8.07874 5.90701,-14.22622 1.06454,-2.54442 1.93553,-4.77747 1.93553,-4.96233 0,-0.18486 -0.612,-0.71011 -1.36,-1.16721 -0.748,-0.45709 -5.536,-3.46362 -10.64,-6.68117 -5.104,-3.21755 -11.008,-6.91937 -13.12,-8.22626 -2.112,-1.30689 -7.008,-4.37488 -10.88,-6.81774 -3.872,-2.44287 -8.912,-5.60031 -11.2,-7.01654 -2.288,-1.41623 -6.536,-4.07709 -9.44,-5.91302 -2.904,-1.83593 -8.232,-5.17524 -11.84,-7.42068 -3.608,-2.24545 -7.496,-4.67866 -8.64,-5.40714 -1.144,-0.72848 -2.63684,-1.66103 -3.31742,-2.07233 l -1.23743,-0.74782 0.21422,-2.91078 c 0.11782,-1.60092 0.3494,-4.13477 0.51462,-5.63077 0.67717,-6.13125 1.26601,-17.41691 1.26601,-24.26407 0,-6.99565 -0.62593,-19.15986 -1.26254,-24.53593 -0.16673,-1.408 -0.3994,-3.814 -0.51704,-5.34667 l -0.2139,-2.78667 3.31674,-2.11112 c 1.82421,-1.16112 7.13274,-4.48143 11.79674,-7.37847 4.664,-2.89704 9.128,-5.67927 9.92,-6.18274 0.792,-0.50347 5.328,-3.33041 10.08,-6.2821 4.752,-2.95169 12.456,-7.73685 17.12,-10.63368 4.664,-2.89683 8.984,-5.59673 9.6,-5.99978 0.616,-0.40305 5.008,-3.13848 9.76,-6.07872 4.752,-2.94024 8.964,-5.5504 9.36,-5.80035 0.396,-0.24995 0.72,-0.60248 0.72,-0.78339 0,-0.18092 -0.55508,-1.6536 -1.2335,-3.27263 -1.52404,-3.63701 -4.52935,-10.88959 -6.19234,-14.94368 -0.68585,-1.672 -1.66555,-4.048 -2.1771,-5.28 -0.51155,-1.232 -1.87916,-4.544 -3.03914,-7.36 -1.15998,-2.816 -2.24165,-5.408 -2.4037,-5.76 -0.16205,-0.352 -0.93414,-2.224 -1.71575,-4.16 -0.78161,-1.936 -2.09002,-5.104 -2.90759,-7.04 -0.81756,-1.936 -1.85958,-4.456 -2.31559,-5.6 -2.13814,-5.36395 -7.50733,-18.10005 -7.72025,-18.31297 -0.13131,-0.1313 -1.0974,-0.0319 -2.14689,0.22092 -3.73525,0.89979 -7.43452,1.76352 -13.74815,3.21003 -3.52,0.80646 -7.624,1.75378 -9.12,2.10515 -1.496,0.35138 -3.296,0.77297 -4,0.93687 -0.704,0.1639 -2.504,0.58465 -4,0.93501 -1.496,0.35036 -4.304,1.00719 -6.24,1.45963 -1.936,0.45245 -4.096,0.95779 -4.8,1.12299 -5.06148,1.18773 -7.47811,1.74774 -13.12,3.04035 -3.52,0.80646 -7.624,1.75378 -9.12,2.10515 -1.496,0.35138 -3.296,0.77297 -4,0.93687 -0.704,0.1639 -2.504,0.58299 -4,0.93131 -1.496,0.34833 -4.232,0.98973 -6.08,1.42535 -1.848,0.43561 -4.44,1.03745 -5.76,1.33741 -1.32,0.29997 -3.47112,0.81551 -4.78027,1.14566 -1.30915,0.33015 -2.54422,0.60027 -2.74461,0.60027 -0.20038,0 -1.26837,-1.116 -2.3733,-2.48 C 535.92301,218.1121 519.03477,201.3509 502.5792,187.44355 l -0.94081,-0.79513 0.40666,-1.8842 c 0.35044,-1.62373 1.13878,-5.05246 2.2726,-9.88421 0.96684,-4.12018 1.70126,-7.27133 2.08825,-8.96 0.242,-1.056 0.72998,-3.144 1.0844,-4.64 0.35441,-1.496 1.59179,-6.824 2.74972,-11.84001 1.15793,-5.016 2.39258,-10.344 2.74366,-11.84 0.35109,-1.496 0.77244,-3.296 0.93634,-4 0.1639,-0.704 0.58434,-2.504 0.93432,-4 0.34998,-1.496 1.80154,-7.76 3.22568,-13.92 2.74426,-11.87005 3.50083,-15.09552 4.49911,-19.180922 0.34149,-1.397509 0.62089,-2.856494 0.62089,-3.242191 0,-0.722586 -0.61706,-1.017216 -11.68,-5.576884 -1.584,-0.652857 -4.896,-2.022172 -7.36,-3.042922 -2.464,-1.020751 -5.848,-2.417065 -7.52,-3.10292 -1.672,-0.685855 -4.048,-1.664406 -5.28,-2.174557 -1.232,-0.510152 -4.544,-1.876829 -7.36,-3.037062 -2.816,-1.160232 -6.128,-2.529375 -7.36,-3.04254 -1.232,-0.513164 -4.544,-1.882101 -7.36,-3.042082 -2.816,-1.15998 -5.408,-2.24254 -5.76,-2.405689 -0.352,-0.163148 -1.864,-0.786121 -3.36,-1.384384 -1.496,-0.598263 -3.97185,-1.609772 -5.50189,-2.247798 -1.53004,-0.638026 -2.97004,-1.159901 -3.2,-1.159722 -0.22996,1.79e-4 -0.81665,0.684179 -1.30374,1.52 -0.4871,0.835822 -2.5031,4.076532 -4.48,7.201578 -1.97691,3.125047 -6.61838,10.50505 -10.31438,16.400007 -3.696,5.894957 -8.33101,13.274098 -10.30003,16.398098 -1.96902,3.124 -4.3311,6.90399 -5.24908,8.39999 -0.91797,1.496 -2.13387,3.44 -2.702,4.32 -0.81156,1.25707 -11.65553,18.53308 -16.10927,25.6644 -0.46179,0.73942 -0.98362,1.39971 -1.15962,1.46732 -0.38731,0.14878 -5.00539,-0.19357 -12.96,-0.96076 -8.21964,-0.79275 -31.72486,-0.80136 -39.04,-0.0143 -2.728,0.29351 -6.4,0.61782 -8.16,0.7207 -1.76,0.10287 -3.6488,0.25648 -4.19734,0.34134 l -0.99734,0.15431 -6.81823,-10.9665 C 323.91707,127.65493 320.38656,122 319.82152,121.12 318.7953,119.52174 307.9435,102.09879 297.99704,86.080003 c -2.89599,-4.664 -5.59682,-8.984 -6.00184,-9.6 -0.40502,-0.616 -2.06206,-3.280001 -3.68232,-5.920001 -4.54135,-7.399542 -4.60616,-7.495886 -5.05098,-7.508316 -0.22997,-0.0064 -1.66997,0.510337 -3.2,1.148363 -1.53004,0.638026 -3.93389,1.632481 -5.34189,2.2099 -1.408,0.57742 -4.36,1.794053 -6.56,2.70363 -2.2,0.909576 -5.152,2.129718 -6.56,2.711425 -1.408,0.581708 -4.144,1.713134 -6.08,2.514281 -4.28708,1.774062 -10.31647,4.262246 -15.04,6.206646 -1.936,0.796938 -4.456,1.842447 -5.6,2.323352 -1.144,0.480905 -3.736,1.548456 -5.76,2.372334 -2.024,0.823878 -3.968,1.63055 -4.32,1.792604 -0.352,0.162055 -2.944,1.24284 -5.76,2.401745 -7.40814,3.048767 -7.52,3.101617 -7.52,3.55278 0,0.387484 0.58866,3.186957 1.27243,6.051257 0.66787,2.797697 1.64724,7.016737 3.04555,13.119997 0.80646,3.52 1.7565,7.624 2.11121,9.12 0.3547,1.496 0.84292,3.584 1.08492,4.64 0.242,1.056 0.74328,3.216 1.11395,4.8 0.72026,3.07796 0.90685,3.87835 1.92094,8.24 0.35805,1.54 0.93209,3.988 1.27564,5.44 0.34355,1.452 1.57185,6.74401 2.72955,11.76001 2.14278,9.28409 2.48402,10.75533 3.67387,15.84 1.01915,4.35522 1.20845,5.16009 2.06962,8.8 1.46703,6.20061 1.55073,5.62593 -1.14183,7.84 -13.06532,10.74354 -28.47207,26.14635 -41.37059,41.36 -1.38025,1.628 -2.61223,2.96 -2.73772,2.96 -0.1961,0 -4.69094,-1.03898 -18.08754,-4.18094 -1.584,-0.3715 -3.744,-0.87109 -4.8,-1.1102 -1.056,-0.23912 -3.144,-0.72497 -4.64,-1.07967 -1.496,-0.35471 -5.6,-1.30475 -9.12001,-2.11121 -3.52,-0.80646 -7.624,-1.75694 -9.12,-2.11218 -3.55395,-0.84391 -7.68254,-1.8105 -10.08,-2.35992 -1.056,-0.242 -3.216,-0.74327 -4.8,-1.11394 -1.584,-0.37067 -3.456,-0.80804 -4.16,-0.97194 -0.704,-0.1639 -2.504,-0.58525 -4,-0.93634 -1.496,-0.35108 -6.824,-1.584 -11.84,-2.73982 -5.016,-1.15582 -9.978665,-2.31165 -11.028148,-2.56852 -1.049483,-0.25686 -2.007451,-0.36089 -2.128818,-0.23117 -0.121367,0.12972 -1.176768,2.53985 -2.345336,5.35585 -1.168568,2.816 -2.544531,6.128 -3.057695,7.36 -0.513165,1.232 -1.882102,4.544 -3.042082,7.36 -1.159981,2.816 -2.242541,5.408 -2.405689,5.76 -0.163149,0.352 -0.786492,1.864 -1.385208,3.36 -1.336532,3.33957 -5.961628,14.53303 -8.594483,20.8 -1.072136,2.552 -2.269471,5.432 -2.660744,6.4 -1.484679,3.67305 -4.925983,12.06913 -5.613208,13.69507 -0.470265,1.11263 -0.608156,1.80336 -0.401301,2.01022 0.173328,0.17332 1.998745,1.35454 4.056483,2.62492 3.822338,2.35979 20.088205,12.55131 35.566229,22.28432 4.752,2.98819 10.296,6.45527 12.32,7.70462 2.024,1.24935 5.624,3.49987 8,5.00114 2.376,1.50127 7.92,4.9753 12.32,7.72006 4.4,2.74475 8.26901,5.21753 8.5978,5.49506 0.51884,0.43794 0.57134,0.80049 0.39744,2.74459 -0.1102,1.232 -0.41915,4.976 -0.68656,8.32 -0.2674,3.344 -0.62502,7.664 -0.7947,9.6 -0.39534,4.51085 -0.39522,20.01398 1.9e-4,24.8 0.16722,2.024 0.53483,6.488 0.81691,9.92 0.28208,3.432 0.59182,7.17684 0.68831,8.32187 l 0.17543,2.08187 -1.55741,0.99784 c -0.85657,0.54881 -4.86941,3.0545 -8.91741,5.56821 -4.048,2.51371 -11.104,6.90184 -15.68,9.75141 -4.576,2.84957 -11.632,7.23394 -15.68,9.74305 -4.048,2.50911 -7.863997,4.89192 -8.479997,5.29515 -0.616,0.40323 -6.736,4.22213 -13.6,8.48644 -13.208856,8.20611 -17.513525,10.89654 -17.737259,11.08587 -0.07549,0.0639 0.198133,0.94238 0.608055,1.95222 0.729365,1.79679 3.924759,9.54697 5.770572,13.99608 1.440247,3.47153 6.001686,14.46399 7.037734,16.96 0.511382,1.232 2.307419,5.5869 3.991194,9.67756 4.152006,10.08712 8.951779,21.70468 10.41234,25.20244 0.661432,1.584 1.301129,3.204 1.421548,3.6 0.257211,0.84584 0.608884,0.87413 3.195372,0.25705 1.067244,-0.25462 3.200441,-0.75862 4.740441,-1.12 1.54,-0.36138 4.06,-0.95538 5.6,-1.31999 1.54,-0.36462 3.664,-0.86095 4.72,-1.10295 1.056,-0.242 3.144,-0.72931 4.64,-1.0829 1.496,-0.3536 5.6,-1.30273 9.12,-2.10919 3.52,-0.80646 7.624,-1.75378 9.12,-2.10516 1.496,-0.35137 3.296,-0.77296 4,-0.93686 0.704,-0.1639 2.504,-0.58435 4,-0.93433 1.496,-0.34998 7.76,-1.80153 13.92001,-3.22567 6.16,-1.42414 12.352,-2.86173 13.76,-3.19464 5.80168,-1.37174 8.12074,-1.9125 10.4,-2.42509 1.32,-0.29686 3.47545,-0.81099 4.7899,-1.14253 l 2.38991,-0.60279 0.81009,1.0373 c 1.89988,2.43274 8.78408,10.30983 12.3762,14.16119 8.49828,9.11158 23.43955,23.22236 31.91451,30.14058 1.48441,1.21175 1.54243,0.41425 -0.7294,10.02598 -0.3536,1.496 -1.30273,5.6 -2.10919,9.12 -0.80646,3.52 -1.75378,7.624 -2.10516,9.12 -0.35137,1.496 -0.77296,3.296 -0.93686,4 -1.23017,5.28397 -1.72151,7.38449 -2.28299,9.76 -0.35359,1.496 -0.8409,3.584 -1.0829,4.64 -0.242,1.056 -0.72931,3.144 -1.0829,4.64 -0.3536,1.496 -1.30273,5.6 -2.10919,9.12 -0.80646,3.52 -1.75378,7.624 -2.10516,9.12 -1.1292,4.80764 -1.22707,5.22613 -2.02059,8.64 -3.23361,13.91168 -3.76478,16.37204 -3.61745,16.75598 0.0916,0.23876 1.07887,0.80709 2.19388,1.26296 11.6399,4.7589 17.33268,7.10245 20.7473,8.54106 1.32,0.55613 3.984,1.65204 5.92,2.43536 1.936,0.78332 3.808,1.55681 4.16,1.71886 0.352,0.16205 2.944,1.24372 5.76,2.4037 2.816,1.15998 6.128,2.52777 7.36,3.03954 1.232,0.51177 4.544,1.87977 7.36,3.04 6.17551,2.5444 8.33508,3.44328 13.76,5.7273 2.288,0.96331 4.29822,1.71525 4.46715,1.67097 0.16894,-0.0443 0.81694,-0.90173 1.44,-1.90546 z m 74.89285,-172.24422 c -0.792,-0.0702 -3.168,-0.27204 -5.28,-0.44852 -20.4687,-1.71041 -41.32079,-9.23068 -60,-21.6389 -10.98741,-7.29872 -22.78968,-18.48554 -31.01604,-29.39864 -11.9948,-15.91232 -20.31627,-34.52481 -24.0356,-53.76 -1.75046,-9.05288 -2.0328,-12.48269 -2.04145,-24.8 -0.009,-12.39092 0.28534,-15.93357 2.09828,-25.28 7.66273,-39.50435 34.2781,-74.20883 70.35481,-91.73749 13.22971,-6.42795 24.26821,-9.91494 38.24,-12.07976 8.1226,-1.25854 21.93279,-1.64819 31.04,-0.87578 27.16105,2.3036 53.46579,13.60312 74.40001,31.95942 21.89525,19.199 37.22341,46.22641 42.2267,74.45635 2.53396,14.29727 2.59513,33.14091 0.15018,46.26497 -4.31655,23.17045 -13.82422,43.35029 -28.93897,61.42237 -14.97995,17.9109 -35.99911,32.10171 -58.79668,39.69579 -8.46454,2.81962 -18.18628,4.88039 -27.28124,5.78295 -3.49659,0.34699 -18.60871,0.65985 -21.12,0.43724 z m 13.60151,-38.83552 c 12.53087,-0.70026 24.04803,-3.77812 35.35305,-9.4478 17.60896,-8.83123 31.72206,-22.97077 40.58388,-40.6599 5.19746,-10.3747 7.96482,-19.82795 9.16403,-31.30421 3.2172,-30.7882 -8.54509,-60.22241 -31.98247,-80.03359 -10.36296,-8.75963 -24.46512,-15.9329 -37.12,-18.88163 -7.46338,-1.73906 -13.51899,-2.40288 -21.92,-2.40288 -15.67918,0 -27.46281,2.75406 -41.28908,9.65004 -18.61416,9.28399 -33.5364,24.83796 -42.19767,43.98408 -3.6821,8.13946 -5.95603,16.05442 -7.29884,25.40535 -0.87215,6.07339 -0.79093,19.66199 0.15396,25.76 1.16754,7.53483 2.39477,12.31578 4.80529,18.72 3.64706,9.68946 8.92919,18.8399 15.23874,26.39866 10.94816,13.11577 24.77398,22.65069 40.9876,28.26692 6.7972,2.35448 15.70249,4.10194 23.0376,4.5206 5.96808,0.34064 6.79526,0.34225 12.48391,0.0244 z"
       id="path1" />
  </g>
</svg>
