<?xml version="1.0" encoding="UTF-8" standalone="no"?>
<!-- Created with Inkscape (http://www.inkscape.org/) -->

<svg
   version="1.1"
   id="svg1"
   width="54.756542"
   height="69.458282"
   viewBox="0 0 547.55995 694.57588"
   sodipodi:docname="subscription_1.svg"
   inkscape:version="1.4.1-rc (06eac75fbf, 2025-03-29)"
   xmlns:inkscape="http://www.inkscape.org/namespaces/inkscape"
   xmlns:sodipodi="http://sodipodi.sourceforge.net/DTD/sodipodi-0.dtd"
   xmlns="http://www.w3.org/2000/svg"
   xmlns:svg="http://www.w3.org/2000/svg">
  <defs
     id="defs1" />
  <sodipodi:namedview
     id="namedview1"
     pagecolor="#ffffff"
     bordercolor="#000000"
     borderopacity="0.25"
     inkscape:showpageshadow="2"
     inkscape:pageopacity="0.0"
     inkscape:pagecheckerboard="0"
     inkscape:deskcolor="#d1d1d1"
     inkscape:zoom="9.304948"
     inkscape:cx="50.027147"
     inkscape:cy="34.497775"
     inkscape:window-width="1920"
     inkscape:window-height="1011"
     inkscape:window-x="0"
     inkscape:window-y="0"
     inkscape:window-maximized="1"
     inkscape:current-layer="g1"
     showgrid="false" />
  <g
     inkscape:groupmode="layer"
     inkscape:label="Image"
     id="g1"
     transform="translate(-0.91135908,-2.1955373)">
    <path
       style="fill:#3c3cf0;fill-opacity:1;stroke-width:0.709119"
       d="m 256.6116,696.30036 -35.45595,-0.37059 -5.41202,-2.35796 c -3.09529,-1.3486 -7.82877,-4.29166 -11.05766,-6.87505 C 196.15495,679.87106 154.11966,638.65521 87.442514,571.73879 8.7455364,492.75941 5.1338139,488.69311 2.0453528,475.59338 -0.53362677,464.65463 1.3553994,450.77198 7.0082353,439.12066 17.37,417.76355 36.01202,407.77512 61.68021,409.82731 c 18.208826,1.45581 21.917511,4.12088 64.97521,46.69121 l 23.94289,23.67189 V 315.19984 150.20927 l 2.44576,-6.33288 c 3.15585,-8.17153 6.18608,-12.83732 12.90397,-19.86885 6.47698,-6.77938 13.36927,-11.54013 20.33587,-14.04668 4.53245,-1.63076 6.17403,-1.83418 15.01641,-1.86081 8.44461,-0.0254 10.72215,0.21623 15.24606,1.61766 14.33568,4.44096 26.15975,15.54405 34.66542,32.5517 l 2.91788,5.83449 v 43.86397 c 0,24.12518 0.21238,68.36566 0.47194,98.31217 l 0.47194,54.4482 5.28176,-5.7782 c 12.0208,-13.15065 28.28424,-20.72044 42.143,-19.6154 15.16952,1.20957 30.38726,9.97353 40.12774,23.10974 2.224,2.99933 4.61374,6.50389 5.31052,7.78792 l 1.26688,2.3346 3.23185,-5.24374 c 4.41076,-7.15655 8.6293,-11.93679 14.28528,-16.18737 17.58852,-13.21814 34.49822,-15.26584 52.98837,-6.41669 9.26507,4.43415 19.87614,14.53802 25.49273,24.27422 1.06871,1.85258 2.023,3.36832 2.12063,3.36832 0.0976,0 1.78793,-2.6326 3.7562,-5.85023 5.80908,-9.49638 14.12896,-17.03331 24.66872,-22.34723 20.23566,-10.20237 46.36851,-3.11751 61.20481,16.59322 2.01512,2.67718 5.43132,8.48849 7.59155,12.91401 l 3.92769,8.0464 -0.22716,136.96843 c -0.21148,127.51394 -0.31206,137.25497 -1.45709,141.11972 -7.3721,24.8826 -27.32838,45.65878 -51.92141,54.0546 -5.30901,1.81251 -6.74907,1.96767 -23.03643,2.48277 -18.70015,0.59133 -157.17017,0.56368 -215.2176,-0.0433 z m 229.96869,-26.89475 c 13.19818,-1.77945 24.39544,-10.74023 31.98447,-25.59608 l 3.44138,-6.73663 0.45004,-106.36784 c 0.24752,-58.50232 0.17407,-120.09491 -0.16323,-136.87245 -0.58005,-28.85258 -0.69505,-30.68948 -2.12338,-33.91846 -4.38285,-9.90817 -13.9626,-15.21506 -26.18793,-14.50735 -11.51936,0.66685 -19.18439,7.27019 -23.67292,20.39399 -2.68909,7.86251 -9.30216,14.97118 -16.18728,17.40039 -11.85289,4.18194 -26.29927,-4.24749 -30.48072,-17.78543 -2.52815,-8.18524 -5.01463,-11.93601 -10.27818,-15.50431 -5.03952,-3.41644 -10.70994,-4.88432 -17.34881,-4.49103 -11.21992,0.66467 -19.30368,7.26682 -23.37043,19.08703 -2.17093,6.30991 -3.99815,9.31794 -7.84717,12.91825 -5.24794,4.90883 -9.06394,6.45305 -15.99907,6.47433 -6.73953,0.0207 -10.12101,-1.42128 -15.47865,-6.60059 -3.9849,-3.85225 -6.32249,-7.55694 -8.18608,-12.97354 -2.14208,-6.22606 -4.00645,-9.34377 -7.52944,-12.59115 -4.53101,-4.17654 -8.78993,-5.92789 -15.36195,-6.31714 -6.99544,-0.41433 -11.71359,0.75015 -16.7992,4.14619 -5.0976,3.40405 -8.12032,7.57722 -10.737,14.8235 -4.29684,11.89911 -11.5421,18.62378 -21.14717,19.62771 -7.58479,0.79277 -17.3776,-3.44713 -21.26091,-9.20512 -1.53711,-2.27917 -1.65816,-3.37931 -2.28411,-20.75962 -0.36353,-10.0941 -1.0032,-56.96444 -1.42149,-104.15631 -0.74395,-83.93343 -1.15492,-99.32425 -2.76166,-103.42402 -1.08756,-2.77502 -8.01232,-9.28208 -11.86021,-11.14481 -4.43671,-2.14777 -13.29782,-2.64092 -19.38802,-1.07899 -6.44704,1.65345 -10.05842,4.00408 -13.97855,9.09859 l -3.39148,4.40748 -0.71955,196.55876 c -0.39575,108.10732 -0.9328,196.77187 -1.19343,197.03233 -0.26063,0.26046 -17.97087,-16.86511 -39.3561,-38.05682 -55.308215,-54.80772 -63.095738,-62.12265 -71.593537,-67.24879 -3.734552,-2.2528 -4.607562,-2.48192 -9.457011,-2.48192 -6.953324,0 -11.829246,2.31534 -18.747441,8.90227 -5.857837,5.57735 -9.144734,10.68335 -10.668939,16.57358 -2.644806,10.22075 -0.780921,12.51249 61.752824,75.92816 23.460084,23.79094 46.119084,46.60229 50.353334,50.69189 4.23425,4.0896 21.10098,20.69317 37.48163,36.89682 29.69553,29.37468 42.93816,41.83992 48.0266,45.20729 2.03695,1.348 4.09431,1.90738 8.53012,2.31928 9.54596,0.88644 248.06579,0.26016 254.96065,-0.66944 z M 89.138188,257.87154 C 74.229593,242.31097 59.684152,215.63692 54.142764,193.69545 50.582639,179.59892 49.653876,169.33342 50.149065,149.55362 50.71517,126.94119 52.194057,118.33425 58.190802,102.75177 62.296961,92.081954 67.942641,80.547936 72.942557,72.614214 96.942964,34.531051 140.8446,6.9287494 184.12765,2.7087371 c 10.23232,-0.9976318 29.69256,-0.4904756 41.6513,1.0854803 24.0324,3.1670557 51.6402,15.6646976 73.37978,33.2179416 8.10984,6.548139 21.18733,20.328739 26.73565,28.173091 5.55987,7.860661 14.02226,23.929375 18.59754,35.3137 6.2527,15.5581 8.6063,28.13087 9.38209,50.11835 0.94466,26.77349 -3.36087,47.17679 -14.96389,70.91189 -7.11713,14.55879 -14.34751,25.25642 -25.3965,37.57511 l -3.1728,3.5374 -8.51293,-7.96333 c -4.68212,-4.37982 -8.89742,-8.4266 -9.36735,-8.99282 -0.7016,-0.84537 0.14908,-2.16654 4.75617,-7.38675 13.46749,-15.25976 24.31627,-36.4607 28.91718,-56.51063 1.51803,-6.6153 2.21698,-35.01815 1.11965,-45.49829 C 324.47859,109.78761 311.09767,84.106082 289.04599,62.959467 266.61885,41.452811 242.8117,30.74415 211.70363,28.170215 c -11.68276,-0.966652 -24.6956,-0.149384 -36.64071,2.30121 -46.86137,9.613822 -87.459124,49.975788 -97.553652,96.987065 -1.900538,8.851 -2.604211,28.61936 -1.420982,39.91983 1.069841,10.21762 3.185632,21.20907 5.497523,28.55942 4.07564,12.95797 15.045568,31.09131 27.625501,45.6651 l 2.63687,3.05479 -8.80177,8.82295 c -4.840973,4.85262 -8.995304,8.82295 -9.231852,8.82295 -0.236541,0 -2.340908,-1.99439 -4.67637,-4.43199 z"
       id="path1" />
  </g>
</svg>
